<svg id="my-svg" width="100%" xmlns="http://www.w3.org/2000/svg" xmlns:xlink="http://www.w3.org/1999/xlink" class="erDiagram" style="max-width: 1592.8px; background-color: transparent;" viewBox="0 0 1592.8046875 1210" role="graphics-document document" aria-roledescription="er"><style>#my-svg{font-family:"trebuchet ms",verdana,arial,sans-serif;font-size:16px;fill:#000000;}@keyframes edge-animation-frame{from{stroke-dashoffset:0;}}@keyframes dash{to{stroke-dashoffset:0;}}#my-svg .edge-animation-slow{stroke-dasharray:9,5!important;stroke-dashoffset:900;animation:dash 50s linear infinite;stroke-linecap:round;}#my-svg .edge-animation-fast{stroke-dasharray:9,5!important;stroke-dashoffset:900;animation:dash 20s linear infinite;stroke-linecap:round;}#my-svg .error-icon{fill:#552222;}#my-svg .error-text{fill:#552222;stroke:#552222;}#my-svg .edge-thickness-normal{stroke-width:1px;}#my-svg .edge-thickness-thick{stroke-width:3.5px;}#my-svg .edge-pattern-solid{stroke-dasharray:0;}#my-svg .edge-thickness-invisible{stroke-width:0;fill:none;}#my-svg .edge-pattern-dashed{stroke-dasharray:3;}#my-svg .edge-pattern-dotted{stroke-dasharray:2;}#my-svg .marker{fill:#666;stroke:#666;}#my-svg .marker.cross{stroke:#666;}#my-svg svg{font-family:"trebuchet ms",verdana,arial,sans-serif;font-size:16px;}#my-svg p{margin:0;}#my-svg .entityBox{fill:#eee;stroke:#999;}#my-svg .relationshipLabelBox{fill:hsl(-160, 0%, 93.3333333333%);opacity:0.7;background-color:hsl(-160, 0%, 93.3333333333%);}#my-svg .relationshipLabelBox rect{opacity:0.5;}#my-svg .labelBkg{background-color:rgba(237.9999999999, 237.9999999999, 237.9999999999, 0.5);}#my-svg .edgeLabel{background-color:white;}#my-svg .edgeLabel .label rect{fill:white;}#my-svg .edgeLabel .label text{fill:#000000;}#my-svg .edgeLabel .label{fill:#999;font-size:14px;}#my-svg .label{font-family:"trebuchet ms",verdana,arial,sans-serif;color:#000000;}#my-svg .edge-pattern-dashed{stroke-dasharray:8,8;}#my-svg .node rect,#my-svg .node circle,#my-svg .node ellipse,#my-svg .node polygon{fill:#eee;stroke:#999;stroke-width:1px;}#my-svg .relationshipLine{stroke:#666;stroke-width:1px;fill:none;}#my-svg .marker{fill:none!important;stroke:#666!important;stroke-width:1;}#my-svg [data-look=neo].labelBkg{background-color:rgba(237.9999999999, 237.9999999999, 237.9999999999, 0.5);}#my-svg .node .neo-node{stroke:#999;}#my-svg [data-look="neo"].node rect,#my-svg [data-look="neo"].cluster rect,#my-svg [data-look="neo"].node polygon{stroke:url(#my-svg-gradient);filter:drop-shadow( 1px 2px 2px rgba(185,185,185,1));}#my-svg [data-look="neo"].node path{stroke:url(#my-svg-gradient);stroke-width:1px;}#my-svg [data-look="neo"].node .outer-path{filter:drop-shadow( 1px 2px 2px rgba(185,185,185,1));}#my-svg [data-look="neo"].node .neo-line path{stroke:#999;filter:none;}#my-svg [data-look="neo"].node circle{stroke:url(#my-svg-gradient);filter:drop-shadow( 1px 2px 2px rgba(185,185,185,1));}#my-svg [data-look="neo"].node circle .state-start{fill:#000000;}#my-svg [data-look="neo"].icon-shape .icon{fill:url(#my-svg-gradient);filter:drop-shadow( 1px 2px 2px rgba(185,185,185,1));}#my-svg [data-look="neo"].icon-shape .icon-neo path{stroke:url(#my-svg-gradient);filter:drop-shadow( 1px 2px 2px rgba(185,185,185,1));}#my-svg :root{--mermaid-font-family:"trebuchet ms",verdana,arial,sans-serif;}</style><g><defs><marker id="my-svg_er-onlyOneStart" class="marker onlyOne er" refX="0" refY="9" markerWidth="18" markerHeight="18" orient="auto"><path d="M9,0 L9,18 M15,0 L15,18"/></marker></defs><defs><marker id="my-svg_er-onlyOneEnd" class="marker onlyOne er" refX="18" refY="9" markerWidth="18" markerHeight="18" orient="auto"><path d="M3,0 L3,18 M9,0 L9,18"/></marker></defs><defs><marker id="my-svg_er-zeroOrOneStart" class="marker zeroOrOne er" refX="0" refY="9" markerWidth="30" markerHeight="18" orient="auto"><circle fill="white" cx="21" cy="9" r="6"/><path d="M9,0 L9,18"/></marker></defs><defs><marker id="my-svg_er-zeroOrOneEnd" class="marker zeroOrOne er" refX="30" refY="9" markerWidth="30" markerHeight="18" orient="auto"><circle fill="white" cx="9" cy="9" r="6"/><path d="M21,0 L21,18"/></marker></defs><defs><marker id="my-svg_er-oneOrMoreStart" class="marker oneOrMore er" refX="18" refY="18" markerWidth="45" markerHeight="36" orient="auto"><path d="M0,18 Q 18,0 36,18 Q 18,36 0,18 M42,9 L42,27"/></marker></defs><defs><marker id="my-svg_er-oneOrMoreEnd" class="marker oneOrMore er" refX="27" refY="18" markerWidth="45" markerHeight="36" orient="auto"><path d="M3,9 L3,27 M9,18 Q27,0 45,18 Q27,36 9,18"/></marker></defs><defs><marker id="my-svg_er-zeroOrMoreStart" class="marker zeroOrMore er" refX="18" refY="18" markerWidth="57" markerHeight="36" orient="auto"><circle fill="white" cx="48" cy="18" r="6"/><path d="M0,18 Q18,0 36,18 Q18,36 0,18"/></marker></defs><defs><marker id="my-svg_er-zeroOrMoreEnd" class="marker zeroOrMore er" refX="39" refY="18" markerWidth="57" markerHeight="36" orient="auto"><circle fill="white" cx="9" cy="18" r="6"/><path d="M21,18 Q39,0 57,18 Q39,36 21,18"/></marker></defs><g class="root"><g class="clusters"/><g class="edgePaths"><path d="M1292.211,261.131L1269.431,272.192C1246.651,283.254,1201.091,305.377,1170.489,324.855C1139.887,344.333,1124.243,361.167,1116.421,369.583L1108.599,378" id="my-svg-id_entity-COMPANY-0_entity-BRAND-1_0" class="edge-thickness-normal edge-pattern-solid relationshipLine" style="undefined;;;undefined" data-edge="true" data-et="edge" data-id="id_entity-COMPANY-0_entity-BRAND-1_0" data-points="W3sieCI6MTI5Mi4yMTA5Mzc1LCJ5IjoyNjEuMTMwNTAwNzU4NzI1MzZ9LHsieCI6MTE1NS41MzEyNSwieSI6MzI3LjV9LHsieCI6MTEwOC41OTkwOTIwNjA4MTA4LCJ5IjozNzh9XQ==" data-look="classic" marker-start="url(#my-svg_er-onlyOneStart)" marker-end="url(#my-svg_er-zeroOrMoreEnd)"/><path d="M1292.211,239.415L1113.284,254.096C934.357,268.777,576.503,298.138,397.576,328.236C218.648,358.333,218.648,389.167,218.648,420C218.648,450.833,218.648,481.667,218.648,512.5C218.648,543.333,218.648,574.167,218.648,605C218.648,635.833,218.648,666.667,218.648,697.5C218.648,728.333,218.648,759.167,218.648,790C218.648,820.833,218.648,851.667,206.176,876.64C193.703,901.614,168.758,920.728,156.285,930.285L143.813,939.843" id="my-svg-id_entity-COMPANY-0_entity-PLAYER-2_1" class="edge-thickness-normal edge-pattern-solid relationshipLine" style="undefined;;;undefined" data-edge="true" data-et="edge" data-id="id_entity-COMPANY-0_entity-PLAYER-2_1" data-points="W3sieCI6MTI5Mi4yMTA5Mzc1LCJ5IjoyMzkuNDE1MjYyMjI0MTkzMzh9LHsieCI6MjE4LjY0ODQzNzUsInkiOjMyNy41fSx7IngiOjIxOC42NDg0Mzc1LCJ5Ijo0MjB9LHsieCI6MjE4LjY0ODQzNzUsInkiOjUxMi41fSx7IngiOjIxOC42NDg0Mzc1LCJ5Ijo2MDV9LHsieCI6MjE4LjY0ODQzNzUsInkiOjY5Ny41fSx7IngiOjIxOC42NDg0Mzc1LCJ5Ijo3OTB9LHsieCI6MjE4LjY0ODQzNzUsInkiOjg4Mi41fSx7IngiOjE0My44MTI1LCJ5Ijo5MzkuODQyNTc3MDEyNjg0NH1d" data-look="classic" marker-start="url(#my-svg_er-onlyOneStart)" marker-end="url(#my-svg_er-zeroOrMoreEnd)"/><path d="M1399.836,257.067L1428.462,268.806C1457.089,280.545,1514.341,304.022,1542.967,331.178C1571.594,358.333,1571.594,389.167,1571.594,420C1571.594,450.833,1571.594,481.667,1571.594,512.5C1571.594,543.333,1571.594,574.167,1571.594,605C1571.594,635.833,1571.594,666.667,1571.594,697.5C1571.594,728.333,1571.594,759.167,1571.594,790C1571.594,820.833,1571.594,851.667,1571.594,882.5C1571.594,913.333,1571.594,944.167,1571.594,975C1571.594,1005.833,1571.594,1036.667,1550.513,1063.06C1529.432,1089.454,1487.271,1111.408,1466.19,1122.385L1445.109,1133.362" id="my-svg-id_entity-COMPANY-0_entity-FACTORY-3_2" class="edge-thickness-normal edge-pattern-solid relationshipLine" style="undefined;;;undefined" data-edge="true" data-et="edge" data-id="id_entity-COMPANY-0_entity-FACTORY-3_2" data-points="W3sieCI6MTM5OS44MzU5Mzc1LCJ5IjoyNTcuMDY2OTgyOTk0NDkzMX0seyJ4IjoxNTcxLjU5Mzc1LCJ5IjozMjcuNX0seyJ4IjoxNTcxLjU5Mzc1LCJ5Ijo0MjB9LHsieCI6MTU3MS41OTM3NSwieSI6NTEyLjV9LHsieCI6MTU3MS41OTM3NSwieSI6NjA1fSx7IngiOjE1NzEuNTkzNzUsInkiOjY5Ny41fSx7IngiOjE1NzEuNTkzNzUsInkiOjc5MH0seyJ4IjoxNTcxLjU5Mzc1LCJ5Ijo4ODIuNX0seyJ4IjoxNTcxLjU5Mzc1LCJ5Ijo5NzV9LHsieCI6MTU3MS41OTM3NSwieSI6MTA2Ny41fSx7IngiOjE0NDUuMTA5Mzc1LCJ5IjoxMTMzLjM2MjIxMzAzNTQ0NzJ9XQ==" data-look="classic" marker-start="url(#my-svg_er-onlyOneStart)" marker-end="url(#my-svg_er-zeroOrMoreEnd)"/><path d="M1292.211,246.655L1230.002,260.13C1167.793,273.604,1043.375,300.552,981.166,329.443C918.957,358.333,918.957,389.167,918.957,420C918.957,450.833,918.957,481.667,917.109,505.5C915.262,529.333,911.567,546.167,909.719,554.583L907.872,563" id="my-svg-id_entity-COMPANY-0_entity-OKR-4_3" class="edge-thickness-normal edge-pattern-solid relationshipLine" style="undefined;;;undefined" data-edge="true" data-et="edge" data-id="id_entity-COMPANY-0_entity-OKR-4_3" data-points="W3sieCI6MTI5Mi4yMTA5Mzc1LCJ5IjoyNDYuNjU1NDYxOTU0Mjg0NzZ9LHsieCI6OTE4Ljk1NzAzMTI1LCJ5IjozMjcuNX0seyJ4Ijo5MTguOTU3MDMxMjUsInkiOjQyMH0seyJ4Ijo5MTguOTU3MDMxMjUsInkiOjUxMi41fSx7IngiOjkwNy44NzE3Njk0MjU2NzU3LCJ5Ijo1NjN9XQ==" data-look="classic" marker-start="url(#my-svg_er-onlyOneStart)" marker-end="url(#my-svg_er-zeroOrMoreEnd)"/><path d="M1297.131,277L1287.333,285.417C1277.535,293.833,1257.94,310.667,1248.142,334.5C1238.344,358.333,1238.344,389.167,1238.344,420C1238.344,450.833,1238.344,481.667,1238.344,512.5C1238.344,543.333,1238.344,574.167,1238.344,605C1238.344,635.833,1238.344,666.667,1238.344,697.5C1238.344,728.333,1238.344,759.167,1238.344,790C1238.344,820.833,1238.344,851.667,1154.145,881.06C1069.945,910.454,901.547,938.408,817.348,952.385L733.148,966.362" id="my-svg-id_entity-COMPANY-0_entity-PROJECT-5_4" class="edge-thickness-normal edge-pattern-solid relationshipLine" style="undefined;;;undefined" data-edge="true" data-et="edge" data-id="id_entity-COMPANY-0_entity-PROJECT-5_4" data-points="W3sieCI6MTI5Ny4xMzEwMzg4NTEzNTE0LCJ5IjoyNzd9LHsieCI6MTIzOC4zNDM3NSwieSI6MzI3LjV9LHsieCI6MTIzOC4zNDM3NSwieSI6NDIwfSx7IngiOjEyMzguMzQzNzUsInkiOjUxMi41fSx7IngiOjEyMzguMzQzNzUsInkiOjYwNX0seyJ4IjoxMjM4LjM0Mzc1LCJ5Ijo2OTcuNX0seyJ4IjoxMjM4LjM0Mzc1LCJ5Ijo3OTB9LHsieCI6MTIzOC4zNDM3NSwieSI6ODgyLjV9LHsieCI6NzMzLjE0ODQzNzUsInkiOjk2Ni4zNjE2MDAyNTc5NzA0fV0=" data-look="classic" marker-start="url(#my-svg_er-onlyOneStart)" marker-end="url(#my-svg_er-zeroOrMoreEnd)"/><path d="M1019.566,438.519L986.277,450.849C952.987,463.18,886.408,487.84,860.29,508.587C834.173,529.333,848.517,546.167,855.69,554.583L862.862,563" id="my-svg-id_entity-BRAND-1_entity-OKR-4_5" class="edge-thickness-normal edge-pattern-solid relationshipLine" style="undefined;;;undefined" data-edge="true" data-et="edge" data-id="id_entity-BRAND-1_entity-OKR-4_5" data-points="W3sieCI6MTAxOS41NjY0MDYyNSwieSI6NDM4LjUxOTM4NzQ4Mzc3MjA1fSx7IngiOjgxOS44MjgxMjUsInkiOjUxMi41fSx7IngiOjg2Mi44NjE4ODc2Njg5MTg5LCJ5Ijo1NjN9XQ==" data-look="classic" marker-start="url(#my-svg_er-onlyOneStart)" marker-end="url(#my-svg_er-zeroOrMoreEnd)"/><path d="M1069.566,462L1069.566,470.417C1069.566,478.833,1069.566,495.667,1069.566,519.5C1069.566,543.333,1069.566,574.167,1069.566,605C1069.566,635.833,1069.566,666.667,1069.566,697.5C1069.566,728.333,1069.566,759.167,1069.566,790C1069.566,820.833,1069.566,851.667,1013.497,880.435C957.427,909.203,845.288,935.906,789.218,949.257L733.148,962.608" id="my-svg-id_entity-BRAND-1_entity-PROJECT-5_6" class="edge-thickness-normal edge-pattern-solid relationshipLine" style="undefined;;;undefined" data-edge="true" data-et="edge" data-id="id_entity-BRAND-1_entity-PROJECT-5_6" data-points="W3sieCI6MTA2OS41NjY0MDYyNSwieSI6NDYyfSx7IngiOjEwNjkuNTY2NDA2MjUsInkiOjUxMi41fSx7IngiOjEwNjkuNTY2NDA2MjUsInkiOjYwNX0seyJ4IjoxMDY5LjU2NjQwNjI1LCJ5Ijo2OTcuNX0seyJ4IjoxMDY5LjU2NjQwNjI1LCJ5Ijo3OTB9LHsieCI6MTA2OS41NjY0MDYyNSwieSI6ODgyLjV9LHsieCI6NzMzLjE0ODQzNzUsInkiOjk2Mi42MDgzNzY0ODk1MTY4fV0=" data-look="classic" marker-start="url(#my-svg_er-onlyOneStart)" marker-end="url(#my-svg_er-zeroOrMoreEnd)"/><path d="M1119.566,430.037L1188.032,443.781C1256.497,457.525,1393.428,485.012,1461.894,514.173C1530.359,543.333,1530.359,574.167,1530.359,605C1530.359,635.833,1530.359,666.667,1530.359,697.5C1530.359,728.333,1530.359,759.167,1530.359,790C1530.359,820.833,1530.359,851.667,1530.359,882.5C1530.359,913.333,1530.359,944.167,1530.359,975C1530.359,1005.833,1530.359,1036.667,1516.151,1061.718C1501.943,1086.77,1473.526,1106.04,1459.318,1115.675L1445.109,1125.31" id="my-svg-id_entity-BRAND-1_entity-FACTORY-3_7" class="edge-thickness-normal edge-pattern-solid relationshipLine" style="undefined;;;undefined" data-edge="true" data-et="edge" data-id="id_entity-BRAND-1_entity-FACTORY-3_7" data-points="W3sieCI6MTExOS41NjY0MDYyNSwieSI6NDMwLjAzNzA0NTUxNDI3MTR9LHsieCI6MTUzMC4zNTkzNzUsInkiOjUxMi41fSx7IngiOjE1MzAuMzU5Mzc1LCJ5Ijo2MDV9LHsieCI6MTUzMC4zNTkzNzUsInkiOjY5Ny41fSx7IngiOjE1MzAuMzU5Mzc1LCJ5Ijo3OTB9LHsieCI6MTUzMC4zNTkzNzUsInkiOjg4Mi41fSx7IngiOjE1MzAuMzU5Mzc1LCJ5Ijo5NzV9LHsieCI6MTUzMC4zNTkzNzUsInkiOjEwNjcuNX0seyJ4IjoxNDQ1LjEwOTM3NSwieSI6MTEyNS4zMDk4NTEwODgyMDE2fV0=" data-look="classic" marker-start="url(#my-svg_er-onlyOneStart)" marker-end="url(#my-svg_er-zeroOrMoreEnd)"/><path d="M729.639,748L721.551,739.583C713.462,731.167,697.286,714.333,717.121,694.043C736.957,673.753,792.805,650.007,820.729,638.133L848.652,626.26" id="my-svg-id_entity-SQUAD-6_entity-OKR-4_8" class="edge-thickness-normal edge-pattern-solid relationshipLine" style="undefined;;;undefined" data-edge="true" data-et="edge" data-id="id_entity-SQUAD-6_entity-OKR-4_8" data-points="W3sieCI6NzI5LjYzODg1MTM1MTM1MTQsInkiOjc0OH0seyJ4Ijo2ODEuMTA5Mzc1LCJ5Ijo2OTcuNX0seyJ4Ijo4NDguNjUyMzQzNzUsInkiOjYyNi4yNjAxNjc3MTExMjAzfV0=" data-look="classic" marker-start="url(#my-svg_er-onlyOneStart)" marker-end="url(#my-svg_er-zeroOrMoreEnd)"/><path d="M720,797.55L626.232,811.708C532.464,825.866,344.927,854.183,245.748,876.758C146.57,899.333,135.749,916.167,130.339,924.583L124.928,933" id="my-svg-id_entity-SQUAD-6_entity-PLAYER-2_9" class="edge-thickness-normal edge-pattern-solid relationshipLine" style="undefined;;;undefined" data-edge="true" data-et="edge" data-id="id_entity-SQUAD-6_entity-PLAYER-2_9" data-points="W3sieCI6NzIwLCJ5Ijo3OTcuNTQ5NjcyMjUyNDAzOX0seyJ4IjoxNTcuMzkwNjI1LCJ5Ijo4ODIuNX0seyJ4IjoxMjQuOTI4MTY3MjI5NzI5NzIsInkiOjkzM31d" data-look="classic" marker-start="url(#my-svg_er-onlyOneStart)" marker-end="url(#my-svg_er-zeroOrMoreEnd)"/><path d="M820,796.682L927.026,810.985C1034.052,825.288,1248.104,853.894,1355.13,883.614C1462.156,913.333,1462.156,944.167,1462.156,975C1462.156,1005.833,1462.156,1036.667,1455.95,1060.5C1449.745,1084.333,1437.333,1101.167,1431.127,1109.583L1424.921,1118" id="my-svg-id_entity-SQUAD-6_entity-FACTORY-3_10" class="edge-thickness-normal edge-pattern-solid relationshipLine" style="undefined;;;undefined" data-edge="true" data-et="edge" data-id="id_entity-SQUAD-6_entity-FACTORY-3_10" data-points="W3sieCI6ODIwLCJ5Ijo3OTYuNjgyMDE3MjQ2ODI4M30seyJ4IjoxNDYyLjE1NjI1LCJ5Ijo4ODIuNX0seyJ4IjoxNDYyLjE1NjI1LCJ5Ijo5NzV9LHsieCI6MTQ2Mi4xNTYyNSwieSI6MTA2Ny41fSx7IngiOjE0MjQuOTIxMDMwNDA1NDA1NCwieSI6MTExOH1d" data-look="classic" marker-start="url(#my-svg_er-onlyOneStart)" marker-end="url(#my-svg_er-zeroOrMoreEnd)"/><path d="M770,832L770,840.417C770,848.833,770,865.667,761.912,882.5C753.824,899.333,737.647,916.167,729.559,924.583L721.471,933" id="my-svg-id_entity-SQUAD-6_entity-PROJECT-5_11" class="edge-thickness-normal edge-pattern-solid relationshipLine" style="undefined;;;undefined" data-edge="true" data-et="edge" data-id="id_entity-SQUAD-6_entity-PROJECT-5_11" data-points="W3sieCI6NzcwLCJ5Ijo4MzJ9LHsieCI6NzcwLCJ5Ijo4ODIuNX0seyJ4Ijo3MjEuNDcwNTIzNjQ4NjQ4NiwieSI6OTMzfV0=" data-look="classic" marker-start="url(#my-svg_er-onlyOneStart)" marker-end="url(#my-svg_er-zeroOrMoreEnd)"/><path d="M948.652,614.338L1022.869,628.198C1097.086,642.059,1245.52,669.779,1319.736,699.056C1393.953,728.333,1393.953,759.167,1393.953,790C1393.953,820.833,1393.953,851.667,1393.953,882.5C1393.953,913.333,1393.953,944.167,1393.953,975C1393.953,1005.833,1393.953,1036.667,1393.953,1060.5C1393.953,1084.333,1393.953,1101.167,1393.953,1109.583L1393.953,1118" id="my-svg-id_entity-OKR-4_entity-FACTORY-3_12" class="edge-thickness-normal edge-pattern-solid relationshipLine" style="undefined;;;undefined" data-edge="true" data-et="edge" data-id="id_entity-OKR-4_entity-FACTORY-3_12" data-points="W3sieCI6OTQ4LjY1MjM0Mzc1LCJ5Ijo2MTQuMzM3NzYwMzU3MTA2M30seyJ4IjoxMzkzLjk1MzEyNSwieSI6Njk3LjV9LHsieCI6MTM5My45NTMxMjUsInkiOjc5MH0seyJ4IjoxMzkzLjk1MzEyNSwieSI6ODgyLjV9LHsieCI6MTM5My45NTMxMjUsInkiOjk3NX0seyJ4IjoxMzkzLjk1MzEyNSwieSI6MTA2Ny41fSx7IngiOjEzOTMuOTUzMTI1LCJ5IjoxMTE4fV0=" data-look="classic" marker-start="url(#my-svg_er-zeroOrMoreStart)" marker-end="url(#my-svg_er-zeroOrMoreEnd)"/><path d="M848.652,620.093L805.913,632.994C763.174,645.895,677.697,671.698,634.958,700.015C592.219,728.333,592.219,759.167,592.219,790C592.219,820.833,592.219,851.667,600.307,875.5C608.395,899.333,624.572,916.167,632.66,924.583L640.748,933" id="my-svg-id_entity-OKR-4_entity-PROJECT-5_13" class="edge-thickness-normal edge-pattern-solid relationshipLine" style="undefined;;;undefined" data-edge="true" data-et="edge" data-id="id_entity-OKR-4_entity-PROJECT-5_13" data-points="W3sieCI6ODQ4LjY1MjM0Mzc1LCJ5Ijo2MjAuMDkyOTkyNzIxMjAwM30seyJ4Ijo1OTIuMjE4NzUsInkiOjY5Ny41fSx7IngiOjU5Mi4yMTg3NSwieSI6NzkwfSx7IngiOjU5Mi4yMTg3NSwieSI6ODgyLjV9LHsieCI6NjQwLjc0ODIyNjM1MTM1MTQsInkiOjkzM31d" data-look="classic" marker-start="url(#my-svg_er-zeroOrMoreStart)" marker-end="url(#my-svg_er-zeroOrMoreEnd)"/><path d="M898.652,647L898.652,655.417C898.652,663.833,898.652,680.667,885.544,698.508C872.435,716.35,846.217,735.2,833.109,744.625L820,754.05" id="my-svg-id_entity-OKR-4_entity-SQUAD-6_14" class="edge-thickness-normal edge-pattern-solid relationshipLine" style="undefined;;;undefined" data-edge="true" data-et="edge" data-id="id_entity-OKR-4_entity-SQUAD-6_14" data-points="W3sieCI6ODk4LjY1MjM0Mzc1LCJ5Ijo2NDd9LHsieCI6ODk4LjY1MjM0Mzc1LCJ5Ijo2OTcuNX0seyJ4Ijo4MjAsInkiOjc1NC4wNTA0MDIzMDc1NzU1fV0=" data-look="classic" marker-start="url(#my-svg_er-zeroOrMoreStart)" marker-end="url(#my-svg_er-zeroOrMoreEnd)"/><path d="M540.523,610.769L665.813,625.224C791.102,639.679,1041.68,668.59,1166.969,698.461C1292.258,728.333,1292.258,759.167,1292.258,790C1292.258,820.833,1292.258,851.667,1292.258,882.5C1292.258,913.333,1292.258,944.167,1292.258,975C1292.258,1005.833,1292.258,1036.667,1301.511,1060.5C1310.765,1084.333,1329.271,1101.167,1338.525,1109.583L1347.778,1118" id="my-svg-id_entity-TASK-7_entity-FACTORY-3_15" class="edge-thickness-normal edge-pattern-solid relationshipLine" style="undefined;;;undefined" data-edge="true" data-et="edge" data-id="id_entity-TASK-7_entity-FACTORY-3_15" data-points="W3sieCI6NTQwLjUyMzQzNzUsInkiOjYxMC43Njg3NDM1NDQyNjkyfSx7IngiOjEyOTIuMjU3ODEyNSwieSI6Njk3LjV9LHsieCI6MTI5Mi4yNTc4MTI1LCJ5Ijo3OTB9LHsieCI6MTI5Mi4yNTc4MTI1LCJ5Ijo4ODIuNX0seyJ4IjoxMjkyLjI1NzgxMjUsInkiOjk3NX0seyJ4IjoxMjkyLjI1NzgxMjUsInkiOjEwNjcuNX0seyJ4IjoxMzQ3Ljc3Nzk1NjA4MTA4MTEsInkiOjExMTh9XQ==" data-look="classic" marker-start="url(#my-svg_er-zeroOrMoreStart)" marker-end="url(#my-svg_er-onlyOneEnd)"/><path d="M490.523,647L490.523,655.417C490.523,663.833,490.523,680.667,490.523,704.5C490.523,728.333,490.523,759.167,490.523,790C490.523,820.833,490.523,851.667,513.615,878.291C536.706,904.914,582.888,927.329,605.979,938.536L629.07,949.743" id="my-svg-id_entity-TASK-7_entity-PROJECT-5_16" class="edge-thickness-normal edge-pattern-solid relationshipLine" style="undefined;;;undefined" data-edge="true" data-et="edge" data-id="id_entity-TASK-7_entity-PROJECT-5_16" data-points="W3sieCI6NDkwLjUyMzQzNzUsInkiOjY0N30seyJ4Ijo0OTAuNTIzNDM3NSwieSI6Njk3LjV9LHsieCI6NDkwLjUyMzQzNzUsInkiOjc5MH0seyJ4Ijo0OTAuNTIzNDM3NSwieSI6ODgyLjV9LHsieCI6NjI5LjA3MDMxMjUsInkiOjk0OS43NDMwODI1OTg4OTMyfV0=" data-look="classic" marker-start="url(#my-svg_er-zeroOrMoreStart)" marker-end="url(#my-svg_er-onlyOneEnd)"/><path d="M540.523,620.093L583.262,632.994C626.001,645.895,711.479,671.698,751.765,693.015C792.051,714.333,787.146,731.167,784.693,739.583L782.24,748" id="my-svg-id_entity-TASK-7_entity-SQUAD-6_17" class="edge-thickness-normal edge-pattern-solid relationshipLine" style="undefined;;;undefined" data-edge="true" data-et="edge" data-id="id_entity-TASK-7_entity-SQUAD-6_17" data-points="W3sieCI6NTQwLjUyMzQzNzUsInkiOjYyMC4wOTI5OTI3MjEyMDAzfSx7IngiOjc5Ni45NTcwMzEyNSwieSI6Njk3LjV9LHsieCI6NzgyLjIzOTk0OTMyNDMyNDQsInkiOjc0OH1d" data-look="classic" marker-start="url(#my-svg_er-zeroOrMoreStart)" marker-end="url(#my-svg_er-onlyOneEnd)"/><path d="M440.523,616.727L383.125,630.189C325.727,643.651,210.93,670.576,153.531,699.454C96.133,728.333,96.133,759.167,96.133,790C96.133,820.833,96.133,851.667,96.296,875.5C96.46,899.333,96.787,916.167,96.95,924.583L97.114,933" id="my-svg-id_entity-TASK-7_entity-PLAYER-2_18" class="edge-thickness-normal edge-pattern-solid relationshipLine" style="undefined;;;undefined" data-edge="true" data-et="edge" data-id="id_entity-TASK-7_entity-PLAYER-2_18" data-points="W3sieCI6NDQwLjUyMzQzNzUsInkiOjYxNi43MjY5NTIxODA5NzU0fSx7IngiOjk2LjEzMjgxMjUsInkiOjY5Ny41fSx7IngiOjk2LjEzMjgxMjUsInkiOjc5MH0seyJ4Ijo5Ni4xMzI4MTI1LCJ5Ijo4ODIuNX0seyJ4Ijo5Ny4xMTM4MDkxMjE2MjE2MywieSI6OTMzfV0=" data-look="classic" marker-start="url(#my-svg_er-zeroOrMoreStart)" marker-end="url(#my-svg_er-onlyOneEnd)"/><path d="M681.109,1017L681.109,1025.417C681.109,1033.833,681.109,1050.667,791.391,1073.394C901.672,1096.121,1122.234,1124.741,1232.516,1139.052L1342.797,1153.362" id="my-svg-id_entity-PROJECT-5_entity-FACTORY-3_19" class="edge-thickness-normal edge-pattern-solid relationshipLine" style="undefined;;;undefined" data-edge="true" data-et="edge" data-id="id_entity-PROJECT-5_entity-FACTORY-3_19" data-points="W3sieCI6NjgxLjEwOTM3NSwieSI6MTAxN30seyJ4Ijo2ODEuMTA5Mzc1LCJ5IjoxMDY3LjV9LHsieCI6MTM0Mi43OTY4NzUsInkiOjExNTMuMzYxODY0ODg5NzQ2MX1d" data-look="classic" marker-start="url(#my-svg_er-onlyOneStart)" marker-end="url(#my-svg_er-zeroOrOneEnd)"/><path d="M575.527,56.681L703.943,70.984C832.359,85.287,1089.191,113.894,1217.607,136.614C1346.023,159.333,1346.023,176.167,1346.023,184.583L1346.023,193" id="my-svg-id_entity-DOCUMENT-8_entity-COMPANY-0_20" class="edge-thickness-normal edge-pattern-solid relationshipLine" style="undefined;;;undefined" data-edge="true" data-et="edge" data-id="id_entity-DOCUMENT-8_entity-COMPANY-0_20" data-points="W3sieCI6NTc1LjUyNzM0Mzc1LCJ5Ijo1Ni42ODExMzgwODM2NTgyNzZ9LHsieCI6MTM0Ni4wMjM0Mzc1LCJ5IjoxNDIuNX0seyJ4IjoxMzQ2LjAyMzQzNzUsInkiOjE5M31d" data-look="classic" marker-start="url(#my-svg_er-zeroOrMoreStart)" marker-end="url(#my-svg_er-zeroOrMoreEnd)"/><path d="M575.527,61.353L646.983,74.878C718.439,88.402,861.35,115.451,932.806,144.392C1004.262,173.333,1004.262,204.167,1004.262,235C1004.262,265.833,1004.262,296.667,1010.204,320.5C1016.146,344.333,1028.03,361.167,1033.972,369.583L1039.915,378" id="my-svg-id_entity-DOCUMENT-8_entity-BRAND-1_21" class="edge-thickness-normal edge-pattern-solid relationshipLine" style="undefined;;;undefined" data-edge="true" data-et="edge" data-id="id_entity-DOCUMENT-8_entity-BRAND-1_21" data-points="W3sieCI6NTc1LjUyNzM0Mzc1LCJ5Ijo2MS4zNTMyNjc0NzIzNDQ3OH0seyJ4IjoxMDA0LjI2MTcxODc1LCJ5IjoxNDIuNX0seyJ4IjoxMDA0LjI2MTcxODc1LCJ5IjoyMzV9LHsieCI6MTAwNC4yNjE3MTg3NSwieSI6MzI3LjV9LHsieCI6MTAzOS45MTQ1NDgxNDE4OTE4LCJ5IjozNzh9XQ==" data-look="classic" marker-start="url(#my-svg_er-zeroOrMoreStart)" marker-end="url(#my-svg_er-zeroOrMoreEnd)"/><path d="M455.559,76.033L430.033,87.111C404.508,98.189,353.457,120.344,327.932,146.839C302.406,173.333,302.406,204.167,302.406,235C302.406,265.833,302.406,296.667,302.406,327.5C302.406,358.333,302.406,389.167,302.406,420C302.406,450.833,302.406,481.667,302.406,512.5C302.406,543.333,302.406,574.167,302.406,605C302.406,635.833,302.406,666.667,302.406,697.5C302.406,728.333,302.406,759.167,302.406,790C302.406,820.833,302.406,851.667,302.406,882.5C302.406,913.333,302.406,944.167,302.406,975C302.406,1005.833,302.406,1036.667,475.805,1066.777C649.203,1096.888,996,1126.277,1169.398,1140.971L1342.797,1155.665" id="my-svg-id_entity-DOCUMENT-8_entity-FACTORY-3_22" class="edge-thickness-normal edge-pattern-solid relationshipLine" style="undefined;;;undefined" data-edge="true" data-et="edge" data-id="id_entity-DOCUMENT-8_entity-FACTORY-3_22" data-points="W3sieCI6NDU1LjU1ODU5Mzc1LCJ5Ijo3Ni4wMzI4NDI3Njg5MDkzM30seyJ4IjozMDIuNDA2MjUsInkiOjE0Mi41fSx7IngiOjMwMi40MDYyNSwieSI6MjM1fSx7IngiOjMwMi40MDYyNSwieSI6MzI3LjV9LHsieCI6MzAyLjQwNjI1LCJ5Ijo0MjB9LHsieCI6MzAyLjQwNjI1LCJ5Ijo1MTIuNX0seyJ4IjozMDIuNDA2MjUsInkiOjYwNX0seyJ4IjozMDIuNDA2MjUsInkiOjY5Ny41fSx7IngiOjMwMi40MDYyNSwieSI6NzkwfSx7IngiOjMwMi40MDYyNSwieSI6ODgyLjV9LHsieCI6MzAyLjQwNjI1LCJ5Ijo5NzV9LHsieCI6MzAyLjQwNjI1LCJ5IjoxMDY3LjV9LHsieCI6MTM0Mi43OTY4NzUsInkiOjExNTUuNjY0OTEwNzQ4Nzk0fV0=" data-look="classic" marker-start="url(#my-svg_er-zeroOrMoreStart)" marker-end="url(#my-svg_er-zeroOrMoreEnd)"/><path d="M455.559,85.793L439.719,95.244C423.88,104.695,392.202,123.598,376.363,148.465C360.523,173.333,360.523,204.167,360.523,235C360.523,265.833,360.523,296.667,360.523,327.5C360.523,358.333,360.523,389.167,360.523,420C360.523,450.833,360.523,481.667,360.523,512.5C360.523,543.333,360.523,574.167,360.523,605C360.523,635.833,360.523,666.667,360.523,697.5C360.523,728.333,360.523,759.167,360.523,790C360.523,820.833,360.523,851.667,405.281,879.997C450.039,908.328,539.555,934.157,584.313,947.071L629.07,959.985" id="my-svg-id_entity-DOCUMENT-8_entity-PROJECT-5_23" class="edge-thickness-normal edge-pattern-solid relationshipLine" style="undefined;;;undefined" data-edge="true" data-et="edge" data-id="id_entity-DOCUMENT-8_entity-PROJECT-5_23" data-points="W3sieCI6NDU1LjU1ODU5Mzc1LCJ5Ijo4NS43OTI2MTY4NTc3NTQ4Mn0seyJ4IjozNjAuNTIzNDM3NSwieSI6MTQyLjV9LHsieCI6MzYwLjUyMzQzNzUsInkiOjIzNX0seyJ4IjozNjAuNTIzNDM3NSwieSI6MzI3LjV9LHsieCI6MzYwLjUyMzQzNzUsInkiOjQyMH0seyJ4IjozNjAuNTIzNDM3NSwieSI6NTEyLjV9LHsieCI6MzYwLjUyMzQzNzUsInkiOjYwNX0seyJ4IjozNjAuNTIzNDM3NSwieSI6Njk3LjV9LHsieCI6MzYwLjUyMzQzNzUsInkiOjc5MH0seyJ4IjozNjAuNTIzNDM3NSwieSI6ODgyLjV9LHsieCI6NjI5LjA3MDMxMjUsInkiOjk1OS45ODQ5NTE4NzAzNTQ2fV0=" data-look="classic" marker-start="url(#my-svg_er-zeroOrMoreStart)" marker-end="url(#my-svg_er-zeroOrMoreEnd)"/><path d="M575.527,76.912L599.893,87.843C624.258,98.775,672.988,120.637,697.354,146.985C721.719,173.333,721.719,204.167,721.719,235C721.719,265.833,721.719,296.667,721.719,327.5C721.719,358.333,721.719,389.167,721.719,420C721.719,450.833,721.719,481.667,721.719,512.5C721.719,543.333,721.719,574.167,721.719,605C721.719,635.833,721.719,666.667,726.112,690.5C730.505,714.333,739.291,731.167,743.685,739.583L748.078,748" id="my-svg-id_entity-DOCUMENT-8_entity-SQUAD-6_24" class="edge-thickness-normal edge-pattern-solid relationshipLine" style="undefined;;;undefined" data-edge="true" data-et="edge" data-id="id_entity-DOCUMENT-8_entity-SQUAD-6_24" data-points="W3sieCI6NTc1LjUyNzM0Mzc1LCJ5Ijo3Ni45MTE3Njc0OTIwODk5NX0seyJ4Ijo3MjEuNzE4NzUsInkiOjE0Mi41fSx7IngiOjcyMS43MTg3NSwieSI6MjM1fSx7IngiOjcyMS43MTg3NSwieSI6MzI3LjV9LHsieCI6NzIxLjcxODc1LCJ5Ijo0MjB9LHsieCI6NzIxLjcxODc1LCJ5Ijo1MTIuNX0seyJ4Ijo3MjEuNzE4NzUsInkiOjYwNX0seyJ4Ijo3MjEuNzE4NzUsInkiOjY5Ny41fSx7IngiOjc0OC4wNzc3MDI3MDI3MDI3LCJ5Ijo3NDh9XQ==" data-look="classic" marker-start="url(#my-svg_er-zeroOrMoreStart)" marker-end="url(#my-svg_er-zeroOrMoreEnd)"/><path d="M455.559,61.656L386.221,75.13C316.883,88.604,178.207,115.552,108.869,144.443C39.531,173.333,39.531,204.167,39.531,235C39.531,265.833,39.531,296.667,39.531,327.5C39.531,358.333,39.531,389.167,39.531,420C39.531,450.833,39.531,481.667,39.531,512.5C39.531,543.333,39.531,574.167,39.531,605C39.531,635.833,39.531,666.667,39.531,697.5C39.531,728.333,39.531,759.167,39.531,790C39.531,820.833,39.531,851.667,44.845,875.5C50.159,899.333,60.786,916.167,66.1,924.583L71.414,933" id="my-svg-id_entity-DOCUMENT-8_entity-PLAYER-2_25" class="edge-thickness-normal edge-pattern-solid relationshipLine" style="undefined;;;undefined" data-edge="true" data-et="edge" data-id="id_entity-DOCUMENT-8_entity-PLAYER-2_25" data-points="W3sieCI6NDU1LjU1ODU5Mzc1LCJ5Ijo2MS42NTYzNDA1MjQ3MDQ3OH0seyJ4IjozOS41MzEyNSwieSI6MTQyLjV9LHsieCI6MzkuNTMxMjUsInkiOjIzNX0seyJ4IjozOS41MzEyNSwieSI6MzI3LjV9LHsieCI6MzkuNTMxMjUsInkiOjQyMH0seyJ4IjozOS41MzEyNSwieSI6NTEyLjV9LHsieCI6MzkuNTMxMjUsInkiOjYwNX0seyJ4IjozOS41MzEyNSwieSI6Njk3LjV9LHsieCI6MzkuNTMxMjUsInkiOjc5MH0seyJ4IjozOS41MzEyNSwieSI6ODgyLjV9LHsieCI6NzEuNDEzNjQwMjAyNzAyNzEsInkiOjkzM31d" data-look="classic" marker-start="url(#my-svg_er-zeroOrMoreStart)" marker-end="url(#my-svg_er-onlyOneEnd)"/></g><g class="edgeLabels"><g class="edgeLabel" transform="translate(1192.86296, 309.37231)"><g class="label" data-id="id_entity-COMPANY-0_entity-BRAND-1_0" transform="translate(-15.625, -10.5)"><foreignObject width="31.25" height="21"><div xmlns="http://www.w3.org/1999/xhtml" class="labelBkg" style="display: table-cell; white-space: nowrap; line-height: 1.5; max-width: 200px; text-align: center;"><span class="edgeLabel"><p>owns</p></span></div></foreignObject></g></g><g class="edgeLabel" transform="translate(218.6484375, 605)"><g class="label" data-id="id_entity-COMPANY-0_entity-PLAYER-2_1" transform="translate(-25.640625, -10.5)"><foreignObject width="51.28125" height="21"><div xmlns="http://www.w3.org/1999/xhtml" class="labelBkg" style="display: table-cell; white-space: nowrap; line-height: 1.5; max-width: 200px; text-align: center;"><span class="edgeLabel"><p>employs</p></span></div></foreignObject></g></g><g class="edgeLabel" transform="translate(1571.59375, 697.5)"><g class="label" data-id="id_entity-COMPANY-0_entity-FACTORY-3_2" transform="translate(-13.2109375, -10.5)"><foreignObject width="26.421875" height="21"><div xmlns="http://www.w3.org/1999/xhtml" class="labelBkg" style="display: table-cell; white-space: nowrap; line-height: 1.5; max-width: 200px; text-align: center;"><span class="edgeLabel"><p>runs</p></span></div></foreignObject></g></g><g class="edgeLabel" transform="translate(918.95703125, 420)"><g class="label" data-id="id_entity-COMPANY-0_entity-OKR-4_3" transform="translate(-20.609375, -10.5)"><foreignObject width="41.21875" height="21"><div xmlns="http://www.w3.org/1999/xhtml" class="labelBkg" style="display: table-cell; white-space: nowrap; line-height: 1.5; max-width: 200px; text-align: center;"><span class="edgeLabel"><p>scopes</p></span></div></foreignObject></g></g><g class="edgeLabel" transform="translate(1238.34375, 605)"><g class="label" data-id="id_entity-COMPANY-0_entity-PROJECT-5_4" transform="translate(-20.609375, -10.5)"><foreignObject width="41.21875" height="21"><div xmlns="http://www.w3.org/1999/xhtml" class="labelBkg" style="display: table-cell; white-space: nowrap; line-height: 1.5; max-width: 200px; text-align: center;"><span class="edgeLabel"><p>scopes</p></span></div></foreignObject></g></g><g class="edgeLabel" transform="translate(888.58822, 487.0321)"><g class="label" data-id="id_entity-BRAND-1_entity-OKR-4_5" transform="translate(-20.609375, -10.5)"><foreignObject width="41.21875" height="21"><div xmlns="http://www.w3.org/1999/xhtml" class="labelBkg" style="display: table-cell; white-space: nowrap; line-height: 1.5; max-width: 200px; text-align: center;"><span class="edgeLabel"><p>scopes</p></span></div></foreignObject></g></g><g class="edgeLabel" transform="translate(1069.56640625, 697.5)"><g class="label" data-id="id_entity-BRAND-1_entity-PROJECT-5_6" transform="translate(-20.609375, -10.5)"><foreignObject width="41.21875" height="21"><div xmlns="http://www.w3.org/1999/xhtml" class="labelBkg" style="display: table-cell; white-space: nowrap; line-height: 1.5; max-width: 200px; text-align: center;"><span class="edgeLabel"><p>scopes</p></span></div></foreignObject></g></g><g class="edgeLabel" transform="translate(1530.359375, 790)"><g class="label" data-id="id_entity-BRAND-1_entity-FACTORY-3_7" transform="translate(-21.234375, -10.5)"><foreignObject width="42.46875" height="21"><div xmlns="http://www.w3.org/1999/xhtml" class="labelBkg" style="display: table-cell; white-space: nowrap; line-height: 1.5; max-width: 200px; text-align: center;"><span class="edgeLabel"><p>carries</p></span></div></foreignObject></g></g><g class="edgeLabel" transform="translate(732.65402, 675.58304)"><g class="label" data-id="id_entity-SQUAD-6_entity-OKR-4_8" transform="translate(-20.609375, -10.5)"><foreignObject width="41.21875" height="21"><div xmlns="http://www.w3.org/1999/xhtml" class="labelBkg" style="display: table-cell; white-space: nowrap; line-height: 1.5; max-width: 200px; text-align: center;"><span class="edgeLabel"><p>scopes</p></span></div></foreignObject></g></g><g class="edgeLabel" transform="translate(409.01483, 844.50639)"><g class="label" data-id="id_entity-SQUAD-6_entity-PLAYER-2_9" transform="translate(-41.2578125, -10.5)"><foreignObject width="82.515625" height="21"><div xmlns="http://www.w3.org/1999/xhtml" class="labelBkg" style="display: table-cell; white-space: nowrap; line-height: 1.5; max-width: 200px; text-align: center;"><span class="edgeLabel"><p>composed_of</p></span></div></foreignObject></g></g><g class="edgeLabel" transform="translate(1462.15625, 975)"><g class="label" data-id="id_entity-SQUAD-6_entity-FACTORY-3_10" transform="translate(-48.203125, -10.5)"><foreignObject width="96.40625" height="21"><div xmlns="http://www.w3.org/1999/xhtml" class="labelBkg" style="display: table-cell; white-space: nowrap; line-height: 1.5; max-width: 200px; text-align: center;"><span class="edgeLabel"><p>responsible_for</p></span></div></foreignObject></g></g><g class="edgeLabel" transform="translate(770, 882.5)"><g class="label" data-id="id_entity-SQUAD-6_entity-PROJECT-5_11" transform="translate(-48.203125, -10.5)"><foreignObject width="96.40625" height="21"><div xmlns="http://www.w3.org/1999/xhtml" class="labelBkg" style="display: table-cell; white-space: nowrap; line-height: 1.5; max-width: 200px; text-align: center;"><span class="edgeLabel"><p>responsible_for</p></span></div></foreignObject></g></g><g class="edgeLabel" transform="translate(1393.953125, 882.5)"><g class="label" data-id="id_entity-OKR-4_entity-FACTORY-3_12" transform="translate(-47.78125, -10.5)"><foreignObject width="95.5625" height="21"><div xmlns="http://www.w3.org/1999/xhtml" class="labelBkg" style="display: table-cell; white-space: nowrap; line-height: 1.5; max-width: 200px; text-align: center;"><span class="edgeLabel"><p>contributed_by</p></span></div></foreignObject></g></g><g class="edgeLabel" transform="translate(592.21875, 790)"><g class="label" data-id="id_entity-OKR-4_entity-PROJECT-5_13" transform="translate(-47.78125, -10.5)"><foreignObject width="95.5625" height="21"><div xmlns="http://www.w3.org/1999/xhtml" class="labelBkg" style="display: table-cell; white-space: nowrap; line-height: 1.5; max-width: 200px; text-align: center;"><span class="edgeLabel"><p>contributed_by</p></span></div></foreignObject></g></g><g class="edgeLabel" transform="translate(898.65234375, 697.5)"><g class="label" data-id="id_entity-OKR-4_entity-SQUAD-6_14" transform="translate(-47.78125, -10.5)"><foreignObject width="95.5625" height="21"><div xmlns="http://www.w3.org/1999/xhtml" class="labelBkg" style="display: table-cell; white-space: nowrap; line-height: 1.5; max-width: 200px; text-align: center;"><span class="edgeLabel"><p>contributed_by</p></span></div></foreignObject></g></g><g class="edgeLabel" transform="translate(1292.2578125, 882.5)"><g class="label" data-id="id_entity-TASK-7_entity-FACTORY-3_15" transform="translate(-33.9140625, -10.5)"><foreignObject width="67.828125" height="21"><div xmlns="http://www.w3.org/1999/xhtml" class="labelBkg" style="display: table-cell; white-space: nowrap; line-height: 1.5; max-width: 200px; text-align: center;"><span class="edgeLabel"><p>belongs_to</p></span></div></foreignObject></g></g><g class="edgeLabel" transform="translate(490.5234375, 790)"><g class="label" data-id="id_entity-TASK-7_entity-PROJECT-5_16" transform="translate(-33.9140625, -10.5)"><foreignObject width="67.828125" height="21"><div xmlns="http://www.w3.org/1999/xhtml" class="labelBkg" style="display: table-cell; white-space: nowrap; line-height: 1.5; max-width: 200px; text-align: center;"><span class="edgeLabel"><p>belongs_to</p></span></div></foreignObject></g></g><g class="edgeLabel" transform="translate(693.91852, 666.39681)"><g class="label" data-id="id_entity-TASK-7_entity-SQUAD-6_17" transform="translate(-33.9140625, -10.5)"><foreignObject width="67.828125" height="21"><div xmlns="http://www.w3.org/1999/xhtml" class="labelBkg" style="display: table-cell; white-space: nowrap; line-height: 1.5; max-width: 200px; text-align: center;"><span class="edgeLabel"><p>belongs_to</p></span></div></foreignObject></g></g><g class="edgeLabel" transform="translate(96.1328125, 790)"><g class="label" data-id="id_entity-TASK-7_entity-PLAYER-2_18" transform="translate(-36.6015625, -10.5)"><foreignObject width="73.203125" height="21"><div xmlns="http://www.w3.org/1999/xhtml" class="labelBkg" style="display: table-cell; white-space: nowrap; line-height: 1.5; max-width: 200px; text-align: center;"><span class="edgeLabel"><p>assigned_to</p></span></div></foreignObject></g></g><g class="edgeLabel" transform="translate(681.109375, 1067.5)"><g class="label" data-id="id_entity-PROJECT-5_entity-FACTORY-3_19" transform="translate(-44.53125, -10.5)"><foreignObject width="89.0625" height="21"><div xmlns="http://www.w3.org/1999/xhtml" class="labelBkg" style="display: table-cell; white-space: nowrap; line-height: 1.5; max-width: 200px; text-align: center;"><span class="edgeLabel"><p>absorbed_into</p></span></div></foreignObject></g></g><g class="edgeLabel" transform="translate(1346.0234375, 142.5)"><g class="label" data-id="id_entity-DOCUMENT-8_entity-COMPANY-0_20" transform="translate(-38.1171875, -10.5)"><foreignObject width="76.234375" height="21"><div xmlns="http://www.w3.org/1999/xhtml" class="labelBkg" style="display: table-cell; white-space: nowrap; line-height: 1.5; max-width: 200px; text-align: center;"><span class="edgeLabel"><p>attached_to</p></span></div></foreignObject></g></g><g class="edgeLabel" transform="translate(1004.26171875, 235)"><g class="label" data-id="id_entity-DOCUMENT-8_entity-BRAND-1_21" transform="translate(-38.1171875, -10.5)"><foreignObject width="76.234375" height="21"><div xmlns="http://www.w3.org/1999/xhtml" class="labelBkg" style="display: table-cell; white-space: nowrap; line-height: 1.5; max-width: 200px; text-align: center;"><span class="edgeLabel"><p>attached_to</p></span></div></foreignObject></g></g><g class="edgeLabel" transform="translate(302.40625, 605)"><g class="label" data-id="id_entity-DOCUMENT-8_entity-FACTORY-3_22" transform="translate(-38.1171875, -10.5)"><foreignObject width="76.234375" height="21"><div xmlns="http://www.w3.org/1999/xhtml" class="labelBkg" style="display: table-cell; white-space: nowrap; line-height: 1.5; max-width: 200px; text-align: center;"><span class="edgeLabel"><p>attached_to</p></span></div></foreignObject></g></g><g class="edgeLabel" transform="translate(360.5234375, 512.5)"><g class="label" data-id="id_entity-DOCUMENT-8_entity-PROJECT-5_23" transform="translate(-38.1171875, -10.5)"><foreignObject width="76.234375" height="21"><div xmlns="http://www.w3.org/1999/xhtml" class="labelBkg" style="display: table-cell; white-space: nowrap; line-height: 1.5; max-width: 200px; text-align: center;"><span class="edgeLabel"><p>attached_to</p></span></div></foreignObject></g></g><g class="edgeLabel" transform="translate(721.71875, 420)"><g class="label" data-id="id_entity-DOCUMENT-8_entity-SQUAD-6_24" transform="translate(-38.1171875, -10.5)"><foreignObject width="76.234375" height="21"><div xmlns="http://www.w3.org/1999/xhtml" class="labelBkg" style="display: table-cell; white-space: nowrap; line-height: 1.5; max-width: 200px; text-align: center;"><span class="edgeLabel"><p>attached_to</p></span></div></foreignObject></g></g><g class="edgeLabel" transform="translate(39.53125, 512.5)"><g class="label" data-id="id_entity-DOCUMENT-8_entity-PLAYER-2_25" transform="translate(-31.53125, -10.5)"><foreignObject width="63.0625" height="21"><div xmlns="http://www.w3.org/1999/xhtml" class="labelBkg" style="display: table-cell; white-space: nowrap; line-height: 1.5; max-width: 200px; text-align: center;"><span class="edgeLabel"><p>owned_by</p></span></div></foreignObject></g></g></g><g class="nodes"><g class="node default" id="my-svg-entity-COMPANY-0" data-look="classic" transform="translate(1346.0234375, 235)"><rect class="basic label-container" style="" x="-53.8125" y="-42" width="107.625" height="84"/><g class="label" style="" transform="translate(-33.8125, -12)"><rect/><foreignObject width="67.625" height="24"><div xmlns="http://www.w3.org/1999/xhtml" style="display: table-cell; white-space: nowrap; line-height: 1.5; max-width: 200px; text-align: center;"><span class="nodeLabel markdown-node-label"><p>COMPANY</p></span></div></foreignObject></g></g><g class="node default" id="my-svg-entity-BRAND-1" data-look="classic" transform="translate(1069.56640625, 420)"><rect class="basic label-container" style="" x="-50" y="-42" width="100" height="84"/><g class="label" style="" transform="translate(-23.9140625, -12)"><rect/><foreignObject width="47.828125" height="24"><div xmlns="http://www.w3.org/1999/xhtml" style="display: table-cell; white-space: nowrap; line-height: 1.5; max-width: 100px; text-align: center;"><span class="nodeLabel markdown-node-label"><p>BRAND</p></span></div></foreignObject></g></g><g class="node default" id="my-svg-entity-PLAYER-2" data-look="classic" transform="translate(97.9296875, 975)"><rect class="basic label-container" style="" x="-45.8828125" y="-42" width="91.765625" height="84"/><g class="label" style="" transform="translate(-25.8828125, -12)"><rect/><foreignObject width="51.765625" height="24"><div xmlns="http://www.w3.org/1999/xhtml" style="display: table-cell; white-space: nowrap; line-height: 1.5; max-width: 200px; text-align: center;"><span class="nodeLabel markdown-node-label"><p>PLAYER</p></span></div></foreignObject></g></g><g class="node default" id="my-svg-entity-FACTORY-3" data-look="classic" transform="translate(1393.953125, 1160)"><rect class="basic label-container" style="" x="-51.15625" y="-42" width="102.3125" height="84"/><g class="label" style="" transform="translate(-31.15625, -12)"><rect/><foreignObject width="62.3125" height="24"><div xmlns="http://www.w3.org/1999/xhtml" style="display: table-cell; white-space: nowrap; line-height: 1.5; max-width: 200px; text-align: center;"><span class="nodeLabel markdown-node-label"><p>FACTORY</p></span></div></foreignObject></g></g><g class="node default" id="my-svg-entity-OKR-4" data-look="classic" transform="translate(898.65234375, 605)"><rect class="basic label-container" style="" x="-50" y="-42" width="100" height="84"/><g class="label" style="" transform="translate(-14.65625, -12)"><rect/><foreignObject width="29.3125" height="24"><div xmlns="http://www.w3.org/1999/xhtml" style="display: table-cell; white-space: nowrap; line-height: 1.5; max-width: 100px; text-align: center;"><span class="nodeLabel markdown-node-label"><p>OKR</p></span></div></foreignObject></g></g><g class="node default" id="my-svg-entity-PROJECT-5" data-look="classic" transform="translate(681.109375, 975)"><rect class="basic label-container" style="" x="-52.0390625" y="-42" width="104.078125" height="84"/><g class="label" style="" transform="translate(-32.0390625, -12)"><rect/><foreignObject width="64.078125" height="24"><div xmlns="http://www.w3.org/1999/xhtml" style="display: table-cell; white-space: nowrap; line-height: 1.5; max-width: 200px; text-align: center;"><span class="nodeLabel markdown-node-label"><p>PROJECT</p></span></div></foreignObject></g></g><g class="node default" id="my-svg-entity-SQUAD-6" data-look="classic" transform="translate(770, 790)"><rect class="basic label-container" style="" x="-50" y="-42" width="100" height="84"/><g class="label" style="" transform="translate(-24.0703125, -12)"><rect/><foreignObject width="48.140625" height="24"><div xmlns="http://www.w3.org/1999/xhtml" style="display: table-cell; white-space: nowrap; line-height: 1.5; max-width: 100px; text-align: center;"><span class="nodeLabel markdown-node-label"><p>SQUAD</p></span></div></foreignObject></g></g><g class="node default" id="my-svg-entity-TASK-7" data-look="classic" transform="translate(490.5234375, 605)"><rect class="basic label-container" style="" x="-50" y="-42" width="100" height="84"/><g class="label" style="" transform="translate(-17.0390625, -12)"><rect/><foreignObject width="34.078125" height="24"><div xmlns="http://www.w3.org/1999/xhtml" style="display: table-cell; white-space: nowrap; line-height: 1.5; max-width: 100px; text-align: center;"><span class="nodeLabel markdown-node-label"><p>TASK</p></span></div></foreignObject></g></g><g class="node default" id="my-svg-entity-DOCUMENT-8" data-look="classic" transform="translate(515.54296875, 50)"><rect class="basic label-container" style="" x="-59.984375" y="-42" width="119.96875" height="84"/><g class="label" style="" transform="translate(-39.984375, -12)"><rect/><foreignObject width="79.96875" height="24"><div xmlns="http://www.w3.org/1999/xhtml" style="display: table-cell; white-space: nowrap; line-height: 1.5; max-width: 200px; text-align: center;"><span class="nodeLabel markdown-node-label"><p>DOCUMENT</p></span></div></foreignObject></g></g></g></g></g><defs><filter id="my-svg-drop-shadow" height="130%" width="130%"><feDropShadow dx="4" dy="4" stdDeviation="0" flood-opacity="0.06" flood-color="#000000"/></filter></defs><defs><filter id="my-svg-drop-shadow-small" height="150%" width="150%"><feDropShadow dx="2" dy="2" stdDeviation="0" flood-opacity="0.06" flood-color="#000000"/></filter></defs><linearGradient id="my-svg-gradient" gradientUnits="objectBoundingBox" x1="0%" y1="0%" x2="100%" y2="0%"><stop offset="0%" stop-color="hsl(0, 0%, 83.3333333333%)" stop-opacity="1"/><stop offset="100%" stop-color="hsl(0, 0%, 88.9215686275%)" stop-opacity="1"/></linearGradient></svg>