<svg id="my-svg" width="100%" xmlns="http://www.w3.org/2000/svg" xmlns:xlink="http://www.w3.org/1999/xlink" class="erDiagram" style="max-width: 1540.71px; background-color: transparent;" viewBox="0 0 1540.71484375 1025" role="graphics-document document" aria-roledescription="er"><style>#my-svg{font-family:"trebuchet ms",verdana,arial,sans-serif;font-size:16px;fill:#000000;}@keyframes edge-animation-frame{from{stroke-dashoffset:0;}}@keyframes dash{to{stroke-dashoffset:0;}}#my-svg .edge-animation-slow{stroke-dasharray:9,5!important;stroke-dashoffset:900;animation:dash 50s linear infinite;stroke-linecap:round;}#my-svg .edge-animation-fast{stroke-dasharray:9,5!important;stroke-dashoffset:900;animation:dash 20s linear infinite;stroke-linecap:round;}#my-svg .error-icon{fill:#552222;}#my-svg .error-text{fill:#552222;stroke:#552222;}#my-svg .edge-thickness-normal{stroke-width:1px;}#my-svg .edge-thickness-thick{stroke-width:3.5px;}#my-svg .edge-pattern-solid{stroke-dasharray:0;}#my-svg .edge-thickness-invisible{stroke-width:0;fill:none;}#my-svg .edge-pattern-dashed{stroke-dasharray:3;}#my-svg .edge-pattern-dotted{stroke-dasharray:2;}#my-svg .marker{fill:#666;stroke:#666;}#my-svg .marker.cross{stroke:#666;}#my-svg svg{font-family:"trebuchet ms",verdana,arial,sans-serif;font-size:16px;}#my-svg p{margin:0;}#my-svg .entityBox{fill:#eee;stroke:#999;}#my-svg .relationshipLabelBox{fill:hsl(-160, 0%, 93.3333333333%);opacity:0.7;background-color:hsl(-160, 0%, 93.3333333333%);}#my-svg .relationshipLabelBox rect{opacity:0.5;}#my-svg .labelBkg{background-color:rgba(237.9999999999, 237.9999999999, 237.9999999999, 0.5);}#my-svg .edgeLabel{background-color:white;}#my-svg .edgeLabel .label rect{fill:white;}#my-svg .edgeLabel .label text{fill:#000000;}#my-svg .edgeLabel .label{fill:#999;font-size:14px;}#my-svg .label{font-family:"trebuchet ms",verdana,arial,sans-serif;color:#000000;}#my-svg .edge-pattern-dashed{stroke-dasharray:8,8;}#my-svg .node rect,#my-svg .node circle,#my-svg .node ellipse,#my-svg .node polygon{fill:#eee;stroke:#999;stroke-width:1px;}#my-svg .relationshipLine{stroke:#666;stroke-width:1px;fill:none;}#my-svg .marker{fill:none!important;stroke:#666!important;stroke-width:1;}#my-svg [data-look=neo].labelBkg{background-color:rgba(237.9999999999, 237.9999999999, 237.9999999999, 0.5);}#my-svg .node .neo-node{stroke:#999;}#my-svg [data-look="neo"].node rect,#my-svg [data-look="neo"].cluster rect,#my-svg [data-look="neo"].node polygon{stroke:url(#my-svg-gradient);filter:drop-shadow( 1px 2px 2px rgba(185,185,185,1));}#my-svg [data-look="neo"].node path{stroke:url(#my-svg-gradient);stroke-width:1px;}#my-svg [data-look="neo"].node .outer-path{filter:drop-shadow( 1px 2px 2px rgba(185,185,185,1));}#my-svg [data-look="neo"].node .neo-line path{stroke:#999;filter:none;}#my-svg [data-look="neo"].node circle{stroke:url(#my-svg-gradient);filter:drop-shadow( 1px 2px 2px rgba(185,185,185,1));}#my-svg [data-look="neo"].node circle .state-start{fill:#000000;}#my-svg [data-look="neo"].icon-shape .icon{fill:url(#my-svg-gradient);filter:drop-shadow( 1px 2px 2px rgba(185,185,185,1));}#my-svg [data-look="neo"].icon-shape .icon-neo path{stroke:url(#my-svg-gradient);filter:drop-shadow( 1px 2px 2px rgba(185,185,185,1));}#my-svg :root{--mermaid-font-family:"trebuchet ms",verdana,arial,sans-serif;}</style><g><defs><marker id="my-svg_er-onlyOneStart" class="marker onlyOne er" refX="0" refY="9" markerWidth="18" markerHeight="18" orient="auto"><path d="M9,0 L9,18 M15,0 L15,18"/></marker></defs><defs><marker id="my-svg_er-onlyOneEnd" class="marker onlyOne er" refX="18" refY="9" markerWidth="18" markerHeight="18" orient="auto"><path d="M3,0 L3,18 M9,0 L9,18"/></marker></defs><defs><marker id="my-svg_er-zeroOrOneStart" class="marker zeroOrOne er" refX="0" refY="9" markerWidth="30" markerHeight="18" orient="auto"><circle fill="white" cx="21" cy="9" r="6"/><path d="M9,0 L9,18"/></marker></defs><defs><marker id="my-svg_er-zeroOrOneEnd" class="marker zeroOrOne er" refX="30" refY="9" markerWidth="30" markerHeight="18" orient="auto"><circle fill="white" cx="9" cy="9" r="6"/><path d="M21,0 L21,18"/></marker></defs><defs><marker id="my-svg_er-oneOrMoreStart" class="marker oneOrMore er" refX="18" refY="18" markerWidth="45" markerHeight="36" orient="auto"><path d="M0,18 Q 18,0 36,18 Q 18,36 0,18 M42,9 L42,27"/></marker></defs><defs><marker id="my-svg_er-oneOrMoreEnd" class="marker oneOrMore er" refX="27" refY="18" markerWidth="45" markerHeight="36" orient="auto"><path d="M3,9 L3,27 M9,18 Q27,0 45,18 Q27,36 9,18"/></marker></defs><defs><marker id="my-svg_er-zeroOrMoreStart" class="marker zeroOrMore er" refX="18" refY="18" markerWidth="57" markerHeight="36" orient="auto"><circle fill="white" cx="48" cy="18" r="6"/><path d="M0,18 Q18,0 36,18 Q18,36 0,18"/></marker></defs><defs><marker id="my-svg_er-zeroOrMoreEnd" class="marker zeroOrMore er" refX="39" refY="18" markerWidth="57" markerHeight="36" orient="auto"><circle fill="white" cx="9" cy="18" r="6"/><path d="M21,18 Q39,0 57,18 Q39,36 21,18"/></marker></defs><g class="root"><g class="clusters"/><g class="edgePaths"><path d="M1142.371,255.158L1174.557,267.215C1206.743,279.272,1271.116,303.386,1303.302,330.86C1335.488,358.333,1335.488,389.167,1335.488,420C1335.488,450.833,1335.488,481.667,1330.484,505.5C1325.479,529.333,1315.47,546.167,1310.466,554.583L1305.461,563" id="my-svg-id_entity-COMPANY-0_entity-BRAND-1_0" class="edge-thickness-normal edge-pattern-solid relationshipLine" style="undefined;;;undefined" data-edge="true" data-et="edge" data-id="id_entity-COMPANY-0_entity-BRAND-1_0" data-points="W3sieCI6MTE0Mi4zNzEwOTM3NSwieSI6MjU1LjE1ODE5MjgwNTM5MTJ9LHsieCI6MTMzNS40ODgyODEyNSwieSI6MzI3LjV9LHsieCI6MTMzNS40ODgyODEyNSwieSI6NDIwfSx7IngiOjEzMzUuNDg4MjgxMjUsInkiOjUxMi41fSx7IngiOjEzMDUuNDYxMjU0MjIyOTczLCJ5Ijo1NjN9XQ==" data-look="classic" marker-start="url(#my-svg_er-onlyOneStart)" marker-end="url(#my-svg_er-zeroOrMoreEnd)"/><path d="M1034.746,240.722L898.73,255.185C762.714,269.648,490.681,298.574,354.665,328.454C218.648,358.333,218.648,389.167,218.648,420C218.648,450.833,218.648,481.667,218.648,512.5C218.648,543.333,218.648,574.167,218.648,605C218.648,635.833,218.648,666.667,206.264,691.615C193.88,716.562,169.112,735.625,156.728,745.156L144.344,754.687" id="my-svg-id_entity-COMPANY-0_entity-PLAYER-2_1" class="edge-thickness-normal edge-pattern-solid relationshipLine" style="undefined;;;undefined" data-edge="true" data-et="edge" data-id="id_entity-COMPANY-0_entity-PLAYER-2_1" data-points="W3sieCI6MTAzNC43NDYwOTM3NSwieSI6MjQwLjcyMjAzNDg3MjQ5NDl9LHsieCI6MjE4LjY0ODQzNzUsInkiOjMyNy41fSx7IngiOjIxOC42NDg0Mzc1LCJ5Ijo0MjB9LHsieCI6MjE4LjY0ODQzNzUsInkiOjUxMi41fSx7IngiOjIxOC42NDg0Mzc1LCJ5Ijo2MDV9LHsieCI6MjE4LjY0ODQzNzUsInkiOjY5Ny41fSx7IngiOjE0NC4zNDM3NSwieSI6NzU0LjY4NzE3NDk4Njk5OTV9XQ==" data-look="classic" marker-start="url(#my-svg_er-onlyOneStart)" marker-end="url(#my-svg_er-zeroOrMoreEnd)"/><path d="M1142.371,246.551L1205.227,260.042C1268.082,273.534,1393.793,300.517,1456.648,329.425C1519.504,358.333,1519.504,389.167,1519.504,420C1519.504,450.833,1519.504,481.667,1519.504,512.5C1519.504,543.333,1519.504,574.167,1519.504,605C1519.504,635.833,1519.504,666.667,1519.504,697.5C1519.504,728.333,1519.504,759.167,1519.504,790C1519.504,820.833,1519.504,851.667,1504.177,876.989C1488.85,902.312,1458.197,922.124,1442.87,932.03L1427.543,941.937" id="my-svg-id_entity-COMPANY-0_entity-FACTORY-3_2" class="edge-thickness-normal edge-pattern-solid relationshipLine" style="undefined;;;undefined" data-edge="true" data-et="edge" data-id="id_entity-COMPANY-0_entity-FACTORY-3_2" data-points="W3sieCI6MTE0Mi4zNzEwOTM3NSwieSI6MjQ2LjU1MDU1MjAyMDQ0OTIzfSx7IngiOjE1MTkuNTAzOTA2MjUsInkiOjMyNy41fSx7IngiOjE1MTkuNTAzOTA2MjUsInkiOjQyMH0seyJ4IjoxNTE5LjUwMzkwNjI1LCJ5Ijo1MTIuNX0seyJ4IjoxNTE5LjUwMzkwNjI1LCJ5Ijo2MDV9LHsieCI6MTUxOS41MDM5MDYyNSwieSI6Njk3LjV9LHsieCI6MTUxOS41MDM5MDYyNSwieSI6NzkwfSx7IngiOjE1MTkuNTAzOTA2MjUsInkiOjg4Mi41fSx7IngiOjE0MjcuNTQyOTY4NzUsInkiOjk0MS45MzY1MTQwMDE4NTZ9XQ==" data-look="classic" marker-start="url(#my-svg_er-onlyOneStart)" marker-end="url(#my-svg_er-zeroOrMoreEnd)"/><path d="M1102.618,277L1105.436,285.417C1108.253,293.833,1113.888,310.667,1116.706,327.5C1119.523,344.333,1119.523,361.167,1119.523,369.583L1119.523,378" id="my-svg-id_entity-COMPANY-0_entity-OKR-4_3" class="edge-thickness-normal edge-pattern-solid relationshipLine" style="undefined;;;undefined" data-edge="true" data-et="edge" data-id="id_entity-COMPANY-0_entity-OKR-4_3" data-points="W3sieCI6MTEwMi42MTgzMDY1ODc4Mzc5LCJ5IjoyNzd9LHsieCI6MTExOS41MjM0Mzc1LCJ5IjozMjcuNX0seyJ4IjoxMTE5LjUyMzQzNzUsInkiOjM3OH1d" data-look="classic" marker-start="url(#my-svg_er-onlyOneStart)" marker-end="url(#my-svg_er-zeroOrMoreEnd)"/><path d="M1043.591,277L1034.58,285.417C1025.569,293.833,1007.546,310.667,998.535,334.5C989.523,358.333,989.523,389.167,989.523,420C989.523,450.833,989.523,481.667,989.523,512.5C989.523,543.333,989.523,574.167,989.523,605C989.523,635.833,989.523,666.667,982.133,690.5C974.743,714.333,959.963,731.167,952.573,739.583L945.182,748" id="my-svg-id_entity-COMPANY-0_entity-PROJECT-5_4" class="edge-thickness-normal edge-pattern-solid relationshipLine" style="undefined;;;undefined" data-edge="true" data-et="edge" data-id="id_entity-COMPANY-0_entity-PROJECT-5_4" data-points="W3sieCI6MTA0My41OTEyNzk1NjA4MTA4LCJ5IjoyNzd9LHsieCI6OTg5LjUyMzQzNzUsInkiOjMyNy41fSx7IngiOjk4OS41MjM0Mzc1LCJ5Ijo0MjB9LHsieCI6OTg5LjUyMzQzNzUsInkiOjUxMi41fSx7IngiOjk4OS41MjM0Mzc1LCJ5Ijo2MDV9LHsieCI6OTg5LjUyMzQzNzUsInkiOjY5Ny41fSx7IngiOjk0NS4xODIzOTAyMDI3MDI3LCJ5Ijo3NDh9XQ==" data-look="classic" marker-start="url(#my-svg_er-onlyOneStart)" marker-end="url(#my-svg_er-zeroOrMoreEnd)"/><path d="M1230.488,618.949L1183.559,632.041C1136.63,645.132,1042.772,671.316,992.148,692.825C941.524,714.333,934.134,731.167,930.439,739.583L926.744,748" id="my-svg-id_entity-BRAND-1_entity-PROJECT-5_5" class="edge-thickness-normal edge-pattern-solid relationshipLine" style="undefined;;;undefined" data-edge="true" data-et="edge" data-id="id_entity-BRAND-1_entity-PROJECT-5_5" data-points="W3sieCI6MTIzMC40ODgyODEyNSwieSI6NjE4Ljk0ODYxMTYxODM0NTJ9LHsieCI6OTQ4LjkxNDA2MjUsInkiOjY5Ny41fSx7IngiOjkyNi43NDM1Mzg4NTEzNTEzLCJ5Ijo3NDh9XQ==" data-look="classic" marker-start="url(#my-svg_er-onlyOneStart)" marker-end="url(#my-svg_er-zeroOrMoreEnd)"/><path d="M1330.488,628.384L1355.118,639.904C1379.749,651.423,1429.009,674.461,1453.639,701.397C1478.27,728.333,1478.27,759.167,1478.27,790C1478.27,820.833,1478.27,851.667,1468.999,875.5C1459.729,899.333,1441.188,916.167,1431.917,924.583L1422.647,933" id="my-svg-id_entity-BRAND-1_entity-FACTORY-3_6" class="edge-thickness-normal edge-pattern-solid relationshipLine" style="undefined;;;undefined" data-edge="true" data-et="edge" data-id="id_entity-BRAND-1_entity-FACTORY-3_6" data-points="W3sieCI6MTMzMC40ODgyODEyNSwieSI6NjI4LjM4NDQyMDkxOTU3NjV9LHsieCI6MTQ3OC4yNjk1MzEyNSwieSI6Njk3LjV9LHsieCI6MTQ3OC4yNjk1MzEyNSwieSI6NzkwfSx7IngiOjE0NzguMjY5NTMxMjUsInkiOjg4Mi41fSx7IngiOjE0MjIuNjQ3MDIyODA0MDU0MSwieSI6OTMzfV0=" data-look="classic" marker-start="url(#my-svg_er-onlyOneStart)" marker-end="url(#my-svg_er-zeroOrMoreEnd)"/><path d="M1169.523,435.895L1209.684,448.663C1249.845,461.43,1330.167,486.965,1370.327,515.149C1410.488,543.333,1410.488,574.167,1410.488,605C1410.488,635.833,1410.488,666.667,1410.488,697.5C1410.488,728.333,1410.488,759.167,1410.488,790C1410.488,820.833,1410.488,851.667,1407.385,875.5C1404.282,899.333,1398.077,916.167,1394.974,924.583L1391.871,933" id="my-svg-id_entity-OKR-4_entity-FACTORY-3_7" class="edge-thickness-normal edge-pattern-solid relationshipLine" style="undefined;;;undefined" data-edge="true" data-et="edge" data-id="id_entity-OKR-4_entity-FACTORY-3_7" data-points="W3sieCI6MTE2OS41MjM0Mzc1LCJ5Ijo0MzUuODk1MzkxMTQyMDc4NX0seyJ4IjoxNDEwLjQ4ODI4MTI1LCJ5Ijo1MTIuNX0seyJ4IjoxNDEwLjQ4ODI4MTI1LCJ5Ijo2MDV9LHsieCI6MTQxMC40ODgyODEyNSwieSI6Njk3LjV9LHsieCI6MTQxMC40ODgyODEyNSwieSI6NzkwfSx7IngiOjE0MTAuNDg4MjgxMjUsInkiOjg4Mi41fSx7IngiOjEzOTEuODcwNjcxNDUyNzAyNywieSI6OTMzfV0=" data-look="classic" marker-start="url(#my-svg_er-zeroOrMoreStart)" marker-end="url(#my-svg_er-zeroOrMoreEnd)"/><path d="M1069.523,441.897L1042.654,453.664C1015.784,465.431,962.044,488.966,935.174,516.149C908.305,543.333,908.305,574.167,908.305,605C908.305,635.833,908.305,666.667,908.305,690.5C908.305,714.333,908.305,731.167,908.305,739.583L908.305,748" id="my-svg-id_entity-OKR-4_entity-PROJECT-5_8" class="edge-thickness-normal edge-pattern-solid relationshipLine" style="undefined;;;undefined" data-edge="true" data-et="edge" data-id="id_entity-OKR-4_entity-PROJECT-5_8" data-points="W3sieCI6MTA2OS41MjM0Mzc1LCJ5Ijo0NDEuODk2NzMwMjg1NTQ1Mn0seyJ4Ijo5MDguMzA0Njg3NSwieSI6NTEyLjV9LHsieCI6OTA4LjMwNDY4NzUsInkiOjYwNX0seyJ4Ijo5MDguMzA0Njg3NSwieSI6Njk3LjV9LHsieCI6OTA4LjMwNDY4NzUsInkiOjc0OH1d" data-look="classic" marker-start="url(#my-svg_er-zeroOrMoreStart)" marker-end="url(#my-svg_er-zeroOrMoreEnd)"/><path d="M1069.523,436.334L1030.665,449.028C991.806,461.723,914.089,487.111,865.599,508.222C817.109,529.333,797.846,546.167,788.215,554.583L778.584,563" id="my-svg-id_entity-OKR-4_entity-SQUAD-6_9" class="edge-thickness-normal edge-pattern-solid relationshipLine" style="undefined;;;undefined" data-edge="true" data-et="edge" data-id="id_entity-OKR-4_entity-SQUAD-6_9" data-points="W3sieCI6MTA2OS41MjM0Mzc1LCJ5Ijo0MzYuMzMzOTYzMzMxMzU1OTZ9LHsieCI6ODM2LjM3MTA5Mzc1LCJ5Ijo1MTIuNX0seyJ4Ijo3NzguNTgzOTk0OTMyNDMyNSwieSI6NTYzfV0=" data-look="classic" marker-start="url(#my-svg_er-zeroOrMoreStart)" marker-end="url(#my-svg_er-zeroOrMoreEnd)"/><path d="M680.523,613.07L593.335,627.141C506.146,641.213,331.768,669.357,239.217,691.845C146.666,714.333,135.942,731.167,130.58,739.583L125.218,748" id="my-svg-id_entity-SQUAD-6_entity-PLAYER-2_10" class="edge-thickness-normal edge-pattern-solid relationshipLine" style="undefined;;;undefined" data-edge="true" data-et="edge" data-id="id_entity-SQUAD-6_entity-PLAYER-2_10" data-points="W3sieCI6NjgwLjUyMzQzNzUsInkiOjYxMy4wNjk2ODI4MDE0ODg1fSx7IngiOjE1Ny4zOTA2MjUsInkiOjY5Ny41fSx7IngiOjEyNS4yMTgyMDEwMTM1MTM1MiwieSI6NzQ4fV0=" data-look="classic" marker-start="url(#my-svg_er-onlyOneStart)" marker-end="url(#my-svg_er-zeroOrMoreEnd)"/><path d="M780.523,614.068L857.193,627.974C933.863,641.879,1087.203,669.689,1163.873,699.011C1240.543,728.333,1240.543,759.167,1240.543,790C1240.543,820.833,1240.543,851.667,1254.658,876.694C1268.772,901.722,1297.001,920.944,1311.116,930.555L1325.23,940.166" id="my-svg-id_entity-SQUAD-6_entity-FACTORY-3_11" class="edge-thickness-normal edge-pattern-solid relationshipLine" style="undefined;;;undefined" data-edge="true" data-et="edge" data-id="id_entity-SQUAD-6_entity-FACTORY-3_11" data-points="W3sieCI6NzgwLjUyMzQzNzUsInkiOjYxNC4wNjgyODAxNjY5NjY2fSx7IngiOjEyNDAuNTQyOTY4NzUsInkiOjY5Ny41fSx7IngiOjEyNDAuNTQyOTY4NzUsInkiOjc5MH0seyJ4IjoxMjQwLjU0Mjk2ODc1LCJ5Ijo4ODIuNX0seyJ4IjoxMzI1LjIzMDQ2ODc1LCJ5Ijo5NDAuMTY2MjA2NTc5MjV9XQ==" data-look="classic" marker-start="url(#my-svg_er-onlyOneStart)" marker-end="url(#my-svg_er-zeroOrMoreEnd)"/><path d="M730.523,647L730.523,655.417C730.523,663.833,730.523,680.667,751.48,699.987C772.438,719.308,814.352,741.116,835.309,752.02L856.266,762.924" id="my-svg-id_entity-SQUAD-6_entity-PROJECT-5_12" class="edge-thickness-normal edge-pattern-solid relationshipLine" style="undefined;;;undefined" data-edge="true" data-et="edge" data-id="id_entity-SQUAD-6_entity-PROJECT-5_12" data-points="W3sieCI6NzMwLjUyMzQzNzUsInkiOjY0N30seyJ4Ijo3MzAuNTIzNDM3NSwieSI6Njk3LjV9LHsieCI6ODU2LjI2NTYyNSwieSI6NzYyLjkyMzk1NDEyMTk4OTh9XQ==" data-look="classic" marker-start="url(#my-svg_er-onlyOneStart)" marker-end="url(#my-svg_er-zeroOrMoreEnd)"/><path d="M482.406,435.514L523.759,448.345C565.112,461.176,647.818,486.838,689.171,508.086C730.523,529.333,730.523,546.167,730.523,554.583L730.523,563" id="my-svg-id_entity-TASK-7_entity-SQUAD-6_13" class="edge-thickness-normal edge-pattern-solid relationshipLine" style="undefined;;;undefined" data-edge="true" data-et="edge" data-id="id_entity-TASK-7_entity-SQUAD-6_13" data-points="W3sieCI6NDgyLjQwNjI1LCJ5Ijo0MzUuNTE0MDMzMzg2NjE5MTN9LHsieCI6NzMwLjUyMzQzNzUsInkiOjUxMi41fSx7IngiOjczMC41MjM0Mzc1LCJ5Ijo1NjN9XQ==" data-look="classic" marker-start="url(#my-svg_er-zeroOrMoreStart)" marker-end="url(#my-svg_er-onlyOneEnd)"/><path d="M382.406,433.754L334.694,446.878C286.982,460.002,191.557,486.251,143.845,514.792C96.133,543.333,96.133,574.167,96.133,605C96.133,635.833,96.133,666.667,96.345,690.5C96.556,714.333,96.98,731.167,97.192,739.583L97.404,748" id="my-svg-id_entity-TASK-7_entity-PLAYER-2_14" class="edge-thickness-normal edge-pattern-solid relationshipLine" style="undefined;;;undefined" data-edge="true" data-et="edge" data-id="id_entity-TASK-7_entity-PLAYER-2_14" data-points="W3sieCI6MzgyLjQwNjI1LCJ5Ijo0MzMuNzUzNjg4MTcyMjkyOH0seyJ4Ijo5Ni4xMzI4MTI1LCJ5Ijo1MTIuNX0seyJ4Ijo5Ni4xMzI4MTI1LCJ5Ijo2MDV9LHsieCI6OTYuMTMyODEyNSwieSI6Njk3LjV9LHsieCI6OTcuNDAzODQyOTA1NDA1NDEsInkiOjc0OH1d" data-look="classic" marker-start="url(#my-svg_er-zeroOrMoreStart)" marker-end="url(#my-svg_er-onlyOneEnd)"/><path d="M908.305,832L908.305,840.417C908.305,848.833,908.305,865.667,977.792,887.815C1047.28,909.964,1186.255,937.427,1255.743,951.159L1325.23,964.891" id="my-svg-id_entity-PROJECT-5_entity-FACTORY-3_15" class="edge-thickness-normal edge-pattern-solid relationshipLine" style="undefined;;;undefined" data-edge="true" data-et="edge" data-id="id_entity-PROJECT-5_entity-FACTORY-3_15" data-points="W3sieCI6OTA4LjMwNDY4NzUsInkiOjgzMn0seyJ4Ijo5MDguMzA0Njg3NSwieSI6ODgyLjV9LHsieCI6MTMyNS4yMzA0Njg3NSwieSI6OTY0Ljg5MDc2MTAwMTA5MzJ9XQ==" data-look="classic" marker-start="url(#my-svg_er-onlyOneStart)" marker-end="url(#my-svg_er-zeroOrOneEnd)"/><path d="M647.703,61.079L721.179,74.649C794.655,88.219,941.607,115.36,1015.083,137.346C1088.559,159.333,1088.559,176.167,1088.559,184.583L1088.559,193" id="my-svg-id_entity-DOCUMENT-8_entity-COMPANY-0_16" class="edge-thickness-normal edge-pattern-solid relationshipLine" style="undefined;;;undefined" data-edge="true" data-et="edge" data-id="id_entity-DOCUMENT-8_entity-COMPANY-0_16" data-points="W3sieCI6NjQ3LjcwMzEyNSwieSI6NjEuMDc4NTAwOTU1NDI2NDM1fSx7IngiOjEwODguNTU4NTkzNzUsInkiOjE0Mi41fSx7IngiOjEwODguNTU4NTkzNzUsInkiOjE5M31d" data-look="classic" marker-start="url(#my-svg_er-zeroOrMoreStart)" marker-end="url(#my-svg_er-zeroOrMoreEnd)"/><path d="M647.703,58.36L748.324,72.383C848.945,86.407,1050.188,114.453,1150.809,143.893C1251.43,173.333,1251.43,204.167,1251.43,235C1251.43,265.833,1251.43,296.667,1251.43,327.5C1251.43,358.333,1251.43,389.167,1251.43,420C1251.43,450.833,1251.43,481.667,1254.074,505.5C1256.718,529.333,1262.006,546.167,1264.65,554.583L1267.294,563" id="my-svg-id_entity-DOCUMENT-8_entity-BRAND-1_17" class="edge-thickness-normal edge-pattern-solid relationshipLine" style="undefined;;;undefined" data-edge="true" data-et="edge" data-id="id_entity-DOCUMENT-8_entity-BRAND-1_17" data-points="W3sieCI6NjQ3LjcwMzEyNSwieSI6NTguMzU5ODk2NDE1NzQ5NTJ9LHsieCI6MTI1MS40Mjk2ODc1LCJ5IjoxNDIuNX0seyJ4IjoxMjUxLjQyOTY4NzUsInkiOjIzNX0seyJ4IjoxMjUxLjQyOTY4NzUsInkiOjMyNy41fSx7IngiOjEyNTEuNDI5Njg3NSwieSI6NDIwfSx7IngiOjEyNTEuNDI5Njg3NSwieSI6NTEyLjV9LHsieCI6MTI2Ny4yOTQxMDg5NTI3MDI4LCJ5Ijo1NjN9XQ==" data-look="classic" marker-start="url(#my-svg_er-zeroOrMoreStart)" marker-end="url(#my-svg_er-zeroOrMoreEnd)"/><path d="M527.734,69.447L490.18,81.623C452.625,93.798,377.516,118.149,339.961,145.741C302.406,173.333,302.406,204.167,302.406,235C302.406,265.833,302.406,296.667,302.406,327.5C302.406,358.333,302.406,389.167,302.406,420C302.406,450.833,302.406,481.667,302.406,512.5C302.406,543.333,302.406,574.167,302.406,605C302.406,635.833,302.406,666.667,302.406,697.5C302.406,728.333,302.406,759.167,302.406,790C302.406,820.833,302.406,851.667,472.877,881.766C643.348,911.865,984.289,941.229,1154.76,955.912L1325.23,970.594" id="my-svg-id_entity-DOCUMENT-8_entity-FACTORY-3_18" class="edge-thickness-normal edge-pattern-solid relationshipLine" style="undefined;;;undefined" data-edge="true" data-et="edge" data-id="id_entity-DOCUMENT-8_entity-FACTORY-3_18" data-points="W3sieCI6NTI3LjczNDM3NSwieSI6NjkuNDQ3Mjg5MTU2NjI2NTF9LHsieCI6MzAyLjQwNjI1LCJ5IjoxNDIuNX0seyJ4IjozMDIuNDA2MjUsInkiOjIzNX0seyJ4IjozMDIuNDA2MjUsInkiOjMyNy41fSx7IngiOjMwMi40MDYyNSwieSI6NDIwfSx7IngiOjMwMi40MDYyNSwieSI6NTEyLjV9LHsieCI6MzAyLjQwNjI1LCJ5Ijo2MDV9LHsieCI6MzAyLjQwNjI1LCJ5Ijo2OTcuNX0seyJ4IjozMDIuNDA2MjUsInkiOjc5MH0seyJ4IjozMDIuNDA2MjUsInkiOjg4Mi41fSx7IngiOjEzMjUuMjMwNDY4NzUsInkiOjk3MC41OTQwMDQ0ODgyNjgzfV0=" data-look="classic" marker-start="url(#my-svg_er-zeroOrMoreStart)" marker-end="url(#my-svg_er-zeroOrMoreEnd)"/><path d="M593.533,92L594.698,100.417C595.863,108.833,598.193,125.667,599.358,149.5C600.523,173.333,600.523,204.167,600.523,235C600.523,265.833,600.523,296.667,600.523,327.5C600.523,358.333,600.523,389.167,600.523,420C600.523,450.833,600.523,481.667,600.523,512.5C600.523,543.333,600.523,574.167,600.523,605C600.523,635.833,600.523,666.667,643.147,694.893C685.771,723.12,771.018,748.74,813.642,761.55L856.266,774.36" id="my-svg-id_entity-DOCUMENT-8_entity-PROJECT-5_19" class="edge-thickness-normal edge-pattern-solid relationshipLine" style="undefined;;;undefined" data-edge="true" data-et="edge" data-id="id_entity-DOCUMENT-8_entity-PROJECT-5_19" data-points="W3sieCI6NTkzLjUzMjc3MDI3MDI3MDIsInkiOjkyfSx7IngiOjYwMC41MjM0Mzc1LCJ5IjoxNDIuNX0seyJ4Ijo2MDAuNTIzNDM3NSwieSI6MjM1fSx7IngiOjYwMC41MjM0Mzc1LCJ5IjozMjcuNX0seyJ4Ijo2MDAuNTIzNDM3NSwieSI6NDIwfSx7IngiOjYwMC41MjM0Mzc1LCJ5Ijo1MTIuNX0seyJ4Ijo2MDAuNTIzNDM3NSwieSI6NjA1fSx7IngiOjYwMC41MjM0Mzc1LCJ5Ijo2OTcuNX0seyJ4Ijo4NTYuMjY1NjI1LCJ5Ijo3NzQuMzYwMjc3NjkzMTY2OH1d" data-look="classic" marker-start="url(#my-svg_er-zeroOrMoreStart)" marker-end="url(#my-svg_er-zeroOrMoreEnd)"/><path d="M624.001,92L631.271,100.417C638.542,108.833,653.084,125.667,660.354,149.5C667.625,173.333,667.625,204.167,667.625,235C667.625,265.833,667.625,296.667,667.625,327.5C667.625,358.333,667.625,389.167,667.625,420C667.625,450.833,667.625,481.667,673.348,505.5C679.071,529.333,690.518,546.167,696.241,554.583L701.964,563" id="my-svg-id_entity-DOCUMENT-8_entity-SQUAD-6_20" class="edge-thickness-normal edge-pattern-solid relationshipLine" style="undefined;;;undefined" data-edge="true" data-et="edge" data-id="id_entity-DOCUMENT-8_entity-SQUAD-6_20" data-points="W3sieCI6NjI0LjAwMDUwNjc1Njc1NjcsInkiOjkyfSx7IngiOjY2Ny42MjUsInkiOjE0Mi41fSx7IngiOjY2Ny42MjUsInkiOjIzNX0seyJ4Ijo2NjcuNjI1LCJ5IjozMjcuNX0seyJ4Ijo2NjcuNjI1LCJ5Ijo0MjB9LHsieCI6NjY3LjYyNSwieSI6NTEyLjV9LHsieCI6NzAxLjk2NDE0Njk1OTQ1OTQsInkiOjU2M31d" data-look="classic" marker-start="url(#my-svg_er-zeroOrMoreStart)" marker-end="url(#my-svg_er-zeroOrMoreEnd)"/><path d="M527.734,60.122L446.367,73.851C365,87.581,202.266,115.041,120.898,144.187C39.531,173.333,39.531,204.167,39.531,235C39.531,265.833,39.531,296.667,39.531,327.5C39.531,358.333,39.531,389.167,39.531,420C39.531,450.833,39.531,481.667,39.531,512.5C39.531,543.333,39.531,574.167,39.531,605C39.531,635.833,39.531,666.667,44.893,690.5C50.255,714.333,60.98,731.167,66.342,739.583L71.704,748" id="my-svg-id_entity-DOCUMENT-8_entity-PLAYER-2_21" class="edge-thickness-normal edge-pattern-solid relationshipLine" style="undefined;;;undefined" data-edge="true" data-et="edge" data-id="id_entity-DOCUMENT-8_entity-PLAYER-2_21" data-points="W3sieCI6NTI3LjczNDM3NSwieSI6NjAuMTIxNjM2NjQzNDg0MjF9LHsieCI6MzkuNTMxMjUsInkiOjE0Mi41fSx7IngiOjM5LjUzMTI1LCJ5IjoyMzV9LHsieCI6MzkuNTMxMjUsInkiOjMyNy41fSx7IngiOjM5LjUzMTI1LCJ5Ijo0MjB9LHsieCI6MzkuNTMxMjUsInkiOjUxMi41fSx7IngiOjM5LjUzMTI1LCJ5Ijo2MDV9LHsieCI6MzkuNTMxMjUsInkiOjY5Ny41fSx7IngiOjcxLjcwMzY3Mzk4NjQ4NjQ4LCJ5Ijo3NDh9XQ==" data-look="classic" marker-start="url(#my-svg_er-zeroOrMoreStart)" marker-end="url(#my-svg_er-onlyOneEnd)"/></g><g class="edgeLabels"><g class="edgeLabel" transform="translate(1335.48828125, 420)"><g class="label" data-id="id_entity-COMPANY-0_entity-BRAND-1_0" transform="translate(-15.625, -10.5)"><foreignObject width="31.25" height="21"><div xmlns="http://www.w3.org/1999/xhtml" class="labelBkg" style="display: table-cell; white-space: nowrap; line-height: 1.5; max-width: 200px; text-align: center;"><span class="edgeLabel"><p>owns</p></span></div></foreignObject></g></g><g class="edgeLabel" transform="translate(218.6484375, 512.5)"><g class="label" data-id="id_entity-COMPANY-0_entity-PLAYER-2_1" transform="translate(-25.640625, -10.5)"><foreignObject width="51.28125" height="21"><div xmlns="http://www.w3.org/1999/xhtml" class="labelBkg" style="display: table-cell; white-space: nowrap; line-height: 1.5; max-width: 200px; text-align: center;"><span class="edgeLabel"><p>employs</p></span></div></foreignObject></g></g><g class="edgeLabel" transform="translate(1519.50390625, 605)"><g class="label" data-id="id_entity-COMPANY-0_entity-FACTORY-3_2" transform="translate(-13.2109375, -10.5)"><foreignObject width="26.421875" height="21"><div xmlns="http://www.w3.org/1999/xhtml" class="labelBkg" style="display: table-cell; white-space: nowrap; line-height: 1.5; max-width: 200px; text-align: center;"><span class="edgeLabel"><p>runs</p></span></div></foreignObject></g></g><g class="edgeLabel" transform="translate(1119.5234375, 327.5)"><g class="label" data-id="id_entity-COMPANY-0_entity-OKR-4_3" transform="translate(-12.265625, -10.5)"><foreignObject width="24.53125" height="21"><div xmlns="http://www.w3.org/1999/xhtml" class="labelBkg" style="display: table-cell; white-space: nowrap; line-height: 1.5; max-width: 200px; text-align: center;"><span class="edgeLabel"><p>sets</p></span></div></foreignObject></g></g><g class="edgeLabel" transform="translate(989.5234375, 512.5)"><g class="label" data-id="id_entity-COMPANY-0_entity-PROJECT-5_4" transform="translate(-20.609375, -10.5)"><foreignObject width="41.21875" height="21"><div xmlns="http://www.w3.org/1999/xhtml" class="labelBkg" style="display: table-cell; white-space: nowrap; line-height: 1.5; max-width: 200px; text-align: center;"><span class="edgeLabel"><p>scopes</p></span></div></foreignObject></g></g><g class="edgeLabel" transform="translate(1063.13923, 665.63435)"><g class="label" data-id="id_entity-BRAND-1_entity-PROJECT-5_5" transform="translate(-20.609375, -10.5)"><foreignObject width="41.21875" height="21"><div xmlns="http://www.w3.org/1999/xhtml" class="labelBkg" style="display: table-cell; white-space: nowrap; line-height: 1.5; max-width: 200px; text-align: center;"><span class="edgeLabel"><p>scopes</p></span></div></foreignObject></g></g><g class="edgeLabel" transform="translate(1478.26953125, 790)"><g class="label" data-id="id_entity-BRAND-1_entity-FACTORY-3_6" transform="translate(-21.234375, -10.5)"><foreignObject width="42.46875" height="21"><div xmlns="http://www.w3.org/1999/xhtml" class="labelBkg" style="display: table-cell; white-space: nowrap; line-height: 1.5; max-width: 200px; text-align: center;"><span class="edgeLabel"><p>carries</p></span></div></foreignObject></g></g><g class="edgeLabel" transform="translate(1410.48828125, 697.5)"><g class="label" data-id="id_entity-OKR-4_entity-FACTORY-3_7" transform="translate(-47.78125, -10.5)"><foreignObject width="95.5625" height="21"><div xmlns="http://www.w3.org/1999/xhtml" class="labelBkg" style="display: table-cell; white-space: nowrap; line-height: 1.5; max-width: 200px; text-align: center;"><span class="edgeLabel"><p>contributed_by</p></span></div></foreignObject></g></g><g class="edgeLabel" transform="translate(908.3046875, 605)"><g class="label" data-id="id_entity-OKR-4_entity-PROJECT-5_8" transform="translate(-47.78125, -10.5)"><foreignObject width="95.5625" height="21"><div xmlns="http://www.w3.org/1999/xhtml" class="labelBkg" style="display: table-cell; white-space: nowrap; line-height: 1.5; max-width: 200px; text-align: center;"><span class="edgeLabel"><p>contributed_by</p></span></div></foreignObject></g></g><g class="edgeLabel" transform="translate(916.47237, 486.33258)"><g class="label" data-id="id_entity-OKR-4_entity-SQUAD-6_9" transform="translate(-47.78125, -10.5)"><foreignObject width="95.5625" height="21"><div xmlns="http://www.w3.org/1999/xhtml" class="labelBkg" style="display: table-cell; white-space: nowrap; line-height: 1.5; max-width: 200px; text-align: center;"><span class="edgeLabel"><p>contributed_by</p></span></div></foreignObject></g></g><g class="edgeLabel" transform="translate(389.40075, 660.05504)"><g class="label" data-id="id_entity-SQUAD-6_entity-PLAYER-2_10" transform="translate(-41.2578125, -10.5)"><foreignObject width="82.515625" height="21"><div xmlns="http://www.w3.org/1999/xhtml" class="labelBkg" style="display: table-cell; white-space: nowrap; line-height: 1.5; max-width: 200px; text-align: center;"><span class="edgeLabel"><p>composed_of</p></span></div></foreignObject></g></g><g class="edgeLabel" transform="translate(1240.54296875, 790)"><g class="label" data-id="id_entity-SQUAD-6_entity-FACTORY-3_11" transform="translate(-48.203125, -10.5)"><foreignObject width="96.40625" height="21"><div xmlns="http://www.w3.org/1999/xhtml" class="labelBkg" style="display: table-cell; white-space: nowrap; line-height: 1.5; max-width: 200px; text-align: center;"><span class="edgeLabel"><p>responsible_for</p></span></div></foreignObject></g></g><g class="edgeLabel" transform="translate(730.5234375, 697.5)"><g class="label" data-id="id_entity-SQUAD-6_entity-PROJECT-5_12" transform="translate(-48.203125, -10.5)"><foreignObject width="96.40625" height="21"><div xmlns="http://www.w3.org/1999/xhtml" class="labelBkg" style="display: table-cell; white-space: nowrap; line-height: 1.5; max-width: 200px; text-align: center;"><span class="edgeLabel"><p>responsible_for</p></span></div></foreignObject></g></g><g class="edgeLabel" transform="translate(730.5234375, 512.5)"><g class="label" data-id="id_entity-TASK-7_entity-SQUAD-6_13" transform="translate(-33.9140625, -10.5)"><foreignObject width="67.828125" height="21"><div xmlns="http://www.w3.org/1999/xhtml" class="labelBkg" style="display: table-cell; white-space: nowrap; line-height: 1.5; max-width: 200px; text-align: center;"><span class="edgeLabel"><p>belongs_to</p></span></div></foreignObject></g></g><g class="edgeLabel" transform="translate(96.1328125, 605)"><g class="label" data-id="id_entity-TASK-7_entity-PLAYER-2_14" transform="translate(-36.6015625, -10.5)"><foreignObject width="73.203125" height="21"><div xmlns="http://www.w3.org/1999/xhtml" class="labelBkg" style="display: table-cell; white-space: nowrap; line-height: 1.5; max-width: 200px; text-align: center;"><span class="edgeLabel"><p>assigned_to</p></span></div></foreignObject></g></g><g class="edgeLabel" transform="translate(908.3046875, 882.5)"><g class="label" data-id="id_entity-PROJECT-5_entity-FACTORY-3_15" transform="translate(-44.53125, -10.5)"><foreignObject width="89.0625" height="21"><div xmlns="http://www.w3.org/1999/xhtml" class="labelBkg" style="display: table-cell; white-space: nowrap; line-height: 1.5; max-width: 200px; text-align: center;"><span class="edgeLabel"><p>absorbed_into</p></span></div></foreignObject></g></g><g class="edgeLabel" transform="translate(1088.55859375, 142.5)"><g class="label" data-id="id_entity-DOCUMENT-8_entity-COMPANY-0_16" transform="translate(-38.1171875, -10.5)"><foreignObject width="76.234375" height="21"><div xmlns="http://www.w3.org/1999/xhtml" class="labelBkg" style="display: table-cell; white-space: nowrap; line-height: 1.5; max-width: 200px; text-align: center;"><span class="edgeLabel"><p>attached_to</p></span></div></foreignObject></g></g><g class="edgeLabel" transform="translate(1251.4296875, 327.5)"><g class="label" data-id="id_entity-DOCUMENT-8_entity-BRAND-1_17" transform="translate(-38.1171875, -10.5)"><foreignObject width="76.234375" height="21"><div xmlns="http://www.w3.org/1999/xhtml" class="labelBkg" style="display: table-cell; white-space: nowrap; line-height: 1.5; max-width: 200px; text-align: center;"><span class="edgeLabel"><p>attached_to</p></span></div></foreignObject></g></g><g class="edgeLabel" transform="translate(302.40625, 512.5)"><g class="label" data-id="id_entity-DOCUMENT-8_entity-FACTORY-3_18" transform="translate(-38.1171875, -10.5)"><foreignObject width="76.234375" height="21"><div xmlns="http://www.w3.org/1999/xhtml" class="labelBkg" style="display: table-cell; white-space: nowrap; line-height: 1.5; max-width: 200px; text-align: center;"><span class="edgeLabel"><p>attached_to</p></span></div></foreignObject></g></g><g class="edgeLabel" transform="translate(600.5234375, 420)"><g class="label" data-id="id_entity-DOCUMENT-8_entity-PROJECT-5_19" transform="translate(-38.1171875, -10.5)"><foreignObject width="76.234375" height="21"><div xmlns="http://www.w3.org/1999/xhtml" class="labelBkg" style="display: table-cell; white-space: nowrap; line-height: 1.5; max-width: 200px; text-align: center;"><span class="edgeLabel"><p>attached_to</p></span></div></foreignObject></g></g><g class="edgeLabel" transform="translate(667.625, 327.5)"><g class="label" data-id="id_entity-DOCUMENT-8_entity-SQUAD-6_20" transform="translate(-38.1171875, -10.5)"><foreignObject width="76.234375" height="21"><div xmlns="http://www.w3.org/1999/xhtml" class="labelBkg" style="display: table-cell; white-space: nowrap; line-height: 1.5; max-width: 200px; text-align: center;"><span class="edgeLabel"><p>attached_to</p></span></div></foreignObject></g></g><g class="edgeLabel" transform="translate(39.53125, 420)"><g class="label" data-id="id_entity-DOCUMENT-8_entity-PLAYER-2_21" transform="translate(-31.53125, -10.5)"><foreignObject width="63.0625" height="21"><div xmlns="http://www.w3.org/1999/xhtml" class="labelBkg" style="display: table-cell; white-space: nowrap; line-height: 1.5; max-width: 200px; text-align: center;"><span class="edgeLabel"><p>owned_by</p></span></div></foreignObject></g></g></g><g class="nodes"><g class="node default" id="my-svg-entity-COMPANY-0" data-look="classic" transform="translate(1088.55859375, 235)"><rect class="basic label-container" style="" x="-53.8125" y="-42" width="107.625" height="84"/><g class="label" style="" transform="translate(-33.8125, -12)"><rect/><foreignObject width="67.625" height="24"><div xmlns="http://www.w3.org/1999/xhtml" style="display: table-cell; white-space: nowrap; line-height: 1.5; max-width: 200px; text-align: center;"><span class="nodeLabel markdown-node-label"><p>COMPANY</p></span></div></foreignObject></g></g><g class="node default" id="my-svg-entity-BRAND-1" data-look="classic" transform="translate(1280.48828125, 605)"><rect class="basic label-container" style="" x="-50" y="-42" width="100" height="84"/><g class="label" style="" transform="translate(-23.9140625, -12)"><rect/><foreignObject width="47.828125" height="24"><div xmlns="http://www.w3.org/1999/xhtml" style="display: table-cell; white-space: nowrap; line-height: 1.5; max-width: 100px; text-align: center;"><span class="nodeLabel markdown-node-label"><p>BRAND</p></span></div></foreignObject></g></g><g class="node default" id="my-svg-entity-PLAYER-2" data-look="classic" transform="translate(98.4609375, 790)"><rect class="basic label-container" style="" x="-45.8828125" y="-42" width="91.765625" height="84"/><g class="label" style="" transform="translate(-25.8828125, -12)"><rect/><foreignObject width="51.765625" height="24"><div xmlns="http://www.w3.org/1999/xhtml" style="display: table-cell; white-space: nowrap; line-height: 1.5; max-width: 200px; text-align: center;"><span class="nodeLabel markdown-node-label"><p>PLAYER</p></span></div></foreignObject></g></g><g class="node default" id="my-svg-entity-FACTORY-3" data-look="classic" transform="translate(1376.38671875, 975)"><rect class="basic label-container" style="" x="-51.15625" y="-42" width="102.3125" height="84"/><g class="label" style="" transform="translate(-31.15625, -12)"><rect/><foreignObject width="62.3125" height="24"><div xmlns="http://www.w3.org/1999/xhtml" style="display: table-cell; white-space: nowrap; line-height: 1.5; max-width: 200px; text-align: center;"><span class="nodeLabel markdown-node-label"><p>FACTORY</p></span></div></foreignObject></g></g><g class="node default" id="my-svg-entity-OKR-4" data-look="classic" transform="translate(1119.5234375, 420)"><rect class="basic label-container" style="" x="-50" y="-42" width="100" height="84"/><g class="label" style="" transform="translate(-14.65625, -12)"><rect/><foreignObject width="29.3125" height="24"><div xmlns="http://www.w3.org/1999/xhtml" style="display: table-cell; white-space: nowrap; line-height: 1.5; max-width: 100px; text-align: center;"><span class="nodeLabel markdown-node-label"><p>OKR</p></span></div></foreignObject></g></g><g class="node default" id="my-svg-entity-PROJECT-5" data-look="classic" transform="translate(908.3046875, 790)"><rect class="basic label-container" style="" x="-52.0390625" y="-42" width="104.078125" height="84"/><g class="label" style="" transform="translate(-32.0390625, -12)"><rect/><foreignObject width="64.078125" height="24"><div xmlns="http://www.w3.org/1999/xhtml" style="display: table-cell; white-space: nowrap; line-height: 1.5; max-width: 200px; text-align: center;"><span class="nodeLabel markdown-node-label"><p>PROJECT</p></span></div></foreignObject></g></g><g class="node default" id="my-svg-entity-SQUAD-6" data-look="classic" transform="translate(730.5234375, 605)"><rect class="basic label-container" style="" x="-50" y="-42" width="100" height="84"/><g class="label" style="" transform="translate(-24.0703125, -12)"><rect/><foreignObject width="48.140625" height="24"><div xmlns="http://www.w3.org/1999/xhtml" style="display: table-cell; white-space: nowrap; line-height: 1.5; max-width: 100px; text-align: center;"><span class="nodeLabel markdown-node-label"><p>SQUAD</p></span></div></foreignObject></g></g><g class="node default" id="my-svg-entity-TASK-7" data-look="classic" transform="translate(432.40625, 420)"><rect class="basic label-container" style="" x="-50" y="-42" width="100" height="84"/><g class="label" style="" transform="translate(-17.0390625, -12)"><rect/><foreignObject width="34.078125" height="24"><div xmlns="http://www.w3.org/1999/xhtml" style="display: table-cell; white-space: nowrap; line-height: 1.5; max-width: 100px; text-align: center;"><span class="nodeLabel markdown-node-label"><p>TASK</p></span></div></foreignObject></g></g><g class="node default" id="my-svg-entity-DOCUMENT-8" data-look="classic" transform="translate(587.71875, 50)"><rect class="basic label-container" style="" x="-59.984375" y="-42" width="119.96875" height="84"/><g class="label" style="" transform="translate(-39.984375, -12)"><rect/><foreignObject width="79.96875" height="24"><div xmlns="http://www.w3.org/1999/xhtml" style="display: table-cell; white-space: nowrap; line-height: 1.5; max-width: 200px; text-align: center;"><span class="nodeLabel markdown-node-label"><p>DOCUMENT</p></span></div></foreignObject></g></g></g></g></g><defs><filter id="my-svg-drop-shadow" height="130%" width="130%"><feDropShadow dx="4" dy="4" stdDeviation="0" flood-opacity="0.06" flood-color="#000000"/></filter></defs><defs><filter id="my-svg-drop-shadow-small" height="150%" width="150%"><feDropShadow dx="2" dy="2" stdDeviation="0" flood-opacity="0.06" flood-color="#000000"/></filter></defs><linearGradient id="my-svg-gradient" gradientUnits="objectBoundingBox" x1="0%" y1="0%" x2="100%" y2="0%"><stop offset="0%" stop-color="hsl(0, 0%, 83.3333333333%)" stop-opacity="1"/><stop offset="100%" stop-color="hsl(0, 0%, 88.9215686275%)" stop-opacity="1"/></linearGradient></svg>