<svg xmlns="http://www.w3.org/2000/svg" viewBox="0 0 1200 620" fill="none" font-family="-apple-system, BlinkMacSystemFont, 'Segoe UI', Roboto, sans-serif">

  <!-- Tagline -->
  <text x="600" y="36" text-anchor="middle" font-size="20" fill="#64748b" font-style="italic">Factories run your business.  Projects change it.</text>

  <!-- Layer 0: Context -->
  <rect x="20" y="60" width="1160" height="110" rx="8" fill="#f1f5f9" stroke="#cbd5e1" stroke-width="1"/>
  <text x="40" y="82" font-size="13" font-weight="600" fill="#475569" letter-spacing="1.2">LAYER 0  ·  CONTEXT</text>

  <g transform="translate(440 98)">
    <rect width="120" height="64" rx="8" fill="#ffffff" stroke="#cbd5e1" stroke-width="1.5"/>
    <g transform="translate(14 10)" stroke="#0f172a" stroke-width="2" stroke-linecap="round" stroke-linejoin="round" fill="none">
      <rect x="6" y="10" width="28" height="26" rx="1"/>
      <rect x="12" y="16" width="4" height="4"/>
      <rect x="24" y="16" width="4" height="4"/>
      <rect x="12" y="24" width="4" height="4"/>
      <rect x="24" y="24" width="4" height="4"/>
      <path d="M17 36v-5h6v5"/>
      <path d="M13 10 20 3l7 7"/>
    </g>
    <text x="66" y="44" font-size="17" font-weight="600" fill="#0f172a">Company</text>
  </g>

  <g transform="translate(640 98)">
    <rect width="120" height="64" rx="8" fill="#ffffff" stroke="#cbd5e1" stroke-width="1.5"/>
    <g transform="translate(18 12)" stroke="#0f172a" stroke-width="2" stroke-linecap="round" stroke-linejoin="round" fill="none">
      <path d="M6 4v36"/>
      <path d="M6 6h22l-6 8 6 8H6"/>
    </g>
    <text x="64" y="44" font-size="17" font-weight="600" fill="#0f172a">Brand</text>
  </g>

  <!-- Layer 1: Strategy -->
  <rect x="20" y="190" width="1160" height="110" rx="8" fill="#fef3c7" stroke="#fde68a" stroke-width="1"/>
  <text x="40" y="212" font-size="13" font-weight="600" fill="#78350f" letter-spacing="1.2">LAYER 1  ·  STRATEGY</text>

  <g transform="translate(540 228)">
    <rect width="120" height="64" rx="8" fill="#ffffff" stroke="#f59e0b" stroke-width="1.5"/>
    <g transform="translate(10 12)" stroke="#b45309" stroke-width="2" stroke-linecap="round" stroke-linejoin="round" fill="none">
      <circle cx="20" cy="20" r="14"/>
      <circle cx="20" cy="20" r="8"/>
      <circle cx="20" cy="20" r="3" fill="#b45309"/>
    </g>
    <text x="64" y="44" font-size="17" font-weight="600" fill="#0f172a">OKR</text>
  </g>

  <!-- Layer 2: Execution -->
  <rect x="20" y="320" width="1160" height="110" rx="8" fill="#dbeafe" stroke="#bfdbfe" stroke-width="1"/>
  <text x="40" y="342" font-size="13" font-weight="600" fill="#1e3a8a" letter-spacing="1.2">LAYER 2  ·  EXECUTION</text>

  <g transform="translate(150 358)">
    <rect width="130" height="64" rx="8" fill="#ffffff" stroke="#3b82f6" stroke-width="1.5"/>
    <g transform="translate(14 12)" stroke="#1d4ed8" stroke-width="2" stroke-linecap="round" stroke-linejoin="round" fill="none">
      <path d="M4 34V16l10 5V14l10 6V14l10 7v13z"/>
      <path d="M4 34h34"/>
      <rect x="9" y="24" width="4" height="6"/>
      <rect x="18" y="24" width="4" height="6"/>
      <rect x="27" y="24" width="4" height="6"/>
    </g>
    <text x="68" y="44" font-size="17" font-weight="600" fill="#0f172a">Factory</text>
  </g>

  <g transform="translate(360 358)">
    <rect width="130" height="64" rx="8" fill="#ffffff" stroke="#3b82f6" stroke-width="1.5"/>
    <g transform="translate(14 12)" stroke="#1d4ed8" stroke-width="2" stroke-linecap="round" stroke-linejoin="round" fill="none">
      <path d="M26 6c-6 1-10 6-13 12l-4 3-3 5 6-1 3 5 3-4c6-3 10-7 12-13z"/>
      <circle cx="26" cy="14" r="2" fill="#1d4ed8"/>
    </g>
    <text x="68" y="44" font-size="17" font-weight="600" fill="#0f172a">Project</text>
  </g>

  <g transform="translate(570 358)">
    <rect width="130" height="64" rx="8" fill="#ffffff" stroke="#3b82f6" stroke-width="1.5"/>
    <g transform="translate(14 14)" stroke="#1d4ed8" stroke-width="2" stroke-linecap="round" stroke-linejoin="round" fill="none">
      <circle cx="20" cy="8" r="4"/>
      <circle cx="8" cy="14" r="3.5"/>
      <circle cx="32" cy="14" r="3.5"/>
      <path d="M12 30c0-5 4-9 8-9s8 4 8 9"/>
    </g>
    <text x="68" y="44" font-size="17" font-weight="600" fill="#0f172a">Squad</text>
  </g>

  <g transform="translate(780 358)">
    <rect width="130" height="64" rx="8" fill="#ffffff" stroke="#3b82f6" stroke-width="1.5"/>
    <g transform="translate(16 14)" stroke="#1d4ed8" stroke-width="2" stroke-linecap="round" stroke-linejoin="round" fill="none">
      <rect x="4" y="4" width="28" height="28" rx="3"/>
      <path d="M10 20l5 5 11-12"/>
    </g>
    <text x="68" y="44" font-size="17" font-weight="600" fill="#0f172a">Task</text>
  </g>

  <!-- Layer 3: People & Knowledge -->
  <rect x="20" y="450" width="1160" height="110" rx="8" fill="#e0e7ff" stroke="#c7d2fe" stroke-width="1"/>
  <text x="40" y="472" font-size="13" font-weight="600" fill="#312e81" letter-spacing="1.2">LAYER 3  ·  PEOPLE & KNOWLEDGE</text>

  <g transform="translate(440 488)">
    <rect width="130" height="64" rx="8" fill="#ffffff" stroke="#8b5cf6" stroke-width="1.5"/>
    <g transform="translate(16 14)" stroke="#6d28d9" stroke-width="2" stroke-linecap="round" stroke-linejoin="round" fill="none">
      <circle cx="18" cy="10" r="5"/>
      <path d="M4 32c0-6 5-11 14-11s14 5 14 11"/>
    </g>
    <text x="68" y="44" font-size="17" font-weight="600" fill="#0f172a">Player</text>
  </g>

  <g transform="translate(650 488)">
    <rect width="130" height="64" rx="8" fill="#ffffff" stroke="#8b5cf6" stroke-width="1.5"/>
    <g transform="translate(16 12)" stroke="#6d28d9" stroke-width="2" stroke-linecap="round" stroke-linejoin="round" fill="none">
      <path d="M8 2h14l6 7v26H8z"/>
      <path d="M22 2v7h6"/>
      <path d="M12 18h12"/>
      <path d="M12 24h12"/>
      <path d="M12 30h8"/>
    </g>
    <text x="68" y="44" font-size="17" font-weight="600" fill="#0f172a">Document</text>
  </g>

  <!-- Dashed connectors between layers -->
  <path d="M500 164c0 18 40 36 100 36s100 18 100 38" stroke="#94a3b8" stroke-width="1.5" fill="none" stroke-dasharray="3 4"/>
  <path d="M600 294c0 18-135 36-335 60" stroke="#94a3b8" stroke-width="1.5" fill="none" stroke-dasharray="3 4"/>
  <path d="M600 294c0 18-25 36-75 60" stroke="#94a3b8" stroke-width="1.5" fill="none" stroke-dasharray="3 4"/>
  <path d="M600 294c0 18 35 36 100 60" stroke="#94a3b8" stroke-width="1.5" fill="none" stroke-dasharray="3 4"/>
  <path d="M600 294c0 18 170 36 245 60" stroke="#94a3b8" stroke-width="1.5" fill="none" stroke-dasharray="3 4"/>
  <path d="M635 424c0 18-60 36-130 60" stroke="#94a3b8" stroke-width="1.5" fill="none" stroke-dasharray="3 4"/>
  <path d="M635 424c0 18 80 36 150 60" stroke="#94a3b8" stroke-width="1.5" fill="none" stroke-dasharray="3 4"/>

</svg>
