<svg xmlns="http://www.w3.org/2000/svg" viewBox="0 0 1200 600" fill="none" font-family="-apple-system, 'Segoe UI Emoji', 'Noto Color Emoji', sans-serif">
<text x="600" y="40" text-anchor="middle" font-size="22" fill="#64748b" font-style="italic" font-family="Georgia, 'Times New Roman', serif">Factories run your business. Projects change it.</text>

<rect x="20" y="70" width="1160" height="110" rx="12" fill="#f1f5f9" stroke="#cbd5e1" stroke-width="1"/>
<text x="40" y="94" font-size="13" font-weight="700" fill="#475569" letter-spacing="2">LAYER 0 — CONTEXT</text>
<g transform="translate(420 112)">
  <rect width="150" height="58" rx="10" fill="#ffffff" stroke="#cbd5e1" stroke-width="1.5"/>
  <text x="75" y="26" text-anchor="middle" font-size="22">🏢</text>
  <text x="75" y="50" text-anchor="middle" font-size="17" font-weight="700" fill="#0f172a" font-family="sans-serif">Company</text>
</g>
<g transform="translate(630 112)">
  <rect width="150" height="58" rx="10" fill="#ffffff" stroke="#cbd5e1" stroke-width="1.5"/>
  <text x="75" y="26" text-anchor="middle" font-size="22">🆔</text>
  <text x="75" y="50" text-anchor="middle" font-size="17" font-weight="700" fill="#0f172a" font-family="sans-serif">Brand</text>
</g>

<rect x="20" y="200" width="1160" height="110" rx="12" fill="#fef3c7" stroke="#fde68a" stroke-width="1"/>
<text x="40" y="224" font-size="13" font-weight="700" fill="#78350f" letter-spacing="2">LAYER 1 — STRATEGY</text>
<g transform="translate(525 242)">
  <rect width="150" height="58" rx="10" fill="#ffffff" stroke="#f59e0b" stroke-width="1.5"/>
  <text x="75" y="26" text-anchor="middle" font-size="22">🎯</text>
  <text x="75" y="50" text-anchor="middle" font-size="17" font-weight="700" fill="#0f172a" font-family="sans-serif">OKR</text>
</g>

<rect x="20" y="330" width="1160" height="110" rx="12" fill="#dbeafe" stroke="#bfdbfe" stroke-width="1"/>
<text x="40" y="354" font-size="13" font-weight="700" fill="#1e3a8a" letter-spacing="2">LAYER 2 — EXECUTION</text>
<g transform="translate(110 372)">
  <rect width="150" height="58" rx="10" fill="#ffffff" stroke="#3b82f6" stroke-width="1.5"/>
  <text x="75" y="26" text-anchor="middle" font-size="22">🏭</text>
  <text x="75" y="50" text-anchor="middle" font-size="17" font-weight="700" fill="#0f172a" font-family="sans-serif">Factory</text>
</g>
<g transform="translate(335 372)">
  <rect width="150" height="58" rx="10" fill="#ffffff" stroke="#3b82f6" stroke-width="1.5"/>
  <text x="75" y="26" text-anchor="middle" font-size="22">🚀</text>
  <text x="75" y="50" text-anchor="middle" font-size="17" font-weight="700" fill="#0f172a" font-family="sans-serif">Project</text>
</g>
<g transform="translate(560 372)">
  <rect width="150" height="58" rx="10" fill="#ffffff" stroke="#3b82f6" stroke-width="1.5"/>
  <text x="75" y="26" text-anchor="middle" font-size="22">⚔️</text>
  <text x="75" y="50" text-anchor="middle" font-size="17" font-weight="700" fill="#0f172a" font-family="sans-serif">Squad</text>
</g>
<g transform="translate(785 372)">
  <rect width="150" height="58" rx="10" fill="#ffffff" stroke="#3b82f6" stroke-width="1.5"/>
  <text x="75" y="26" text-anchor="middle" font-size="22">✅</text>
  <text x="75" y="50" text-anchor="middle" font-size="17" font-weight="700" fill="#0f172a" font-family="sans-serif">Task</text>
</g>

<rect x="20" y="460" width="1160" height="110" rx="12" fill="#e0e7ff" stroke="#c7d2fe" stroke-width="1"/>
<text x="40" y="484" font-size="13" font-weight="700" fill="#312e81" letter-spacing="2">LAYER 3 — PEOPLE AND KNOWLEDGE</text>
<g transform="translate(420 502)">
  <rect width="150" height="58" rx="10" fill="#ffffff" stroke="#8b5cf6" stroke-width="1.5"/>
  <text x="75" y="26" text-anchor="middle" font-size="22">🏀</text>
  <text x="75" y="50" text-anchor="middle" font-size="17" font-weight="700" fill="#0f172a" font-family="sans-serif">Player</text>
</g>
<g transform="translate(630 502)">
  <rect width="150" height="58" rx="10" fill="#ffffff" stroke="#8b5cf6" stroke-width="1.5"/>
  <text x="75" y="26" text-anchor="middle" font-size="22">📄</text>
  <text x="75" y="50" text-anchor="middle" font-size="17" font-weight="700" fill="#0f172a" font-family="sans-serif">Document</text>
</g>
</svg>
